<svg width="30" height="30" viewBox="0 0 30 30" fill="none" xmlns="http://www.w3.org/2000/svg">
	<g id="fav-icon">
		<rect id="logo-bg" width="30" height="30" rx="15" fill="#fea862" />
		<path id="logo-ic" d="M20.5309 14.8792L21.5694 15.9177L25 12.4872L22.7241 10.2126C22.349 10.5303 21.8711 10.7065 21.3759 10.7065C20.8233 10.7065 20.2933 10.4876 19.9022 10.0964C19.5124 9.70533 19.2922 9.1754 19.2922 8.62277C19.2922 8.12754 19.4684 7.651 19.7874 7.27591L17.5115 5L14.0823 8.43055L15.1208 9.46773C15.1875 9.53447 15.1875 9.64259 15.1208 9.70934C15.0541 9.77608 14.9459 9.77608 14.8792 9.70934L13.8407 8.67083L5 17.5115L7.27591 19.7874C7.651 19.4697 8.12754 19.2935 8.62277 19.2922C9.1754 19.2922 9.70533 19.5124 10.0964 19.9036C10.4876 20.2933 10.7065 20.8233 10.7065 21.3759C10.7065 21.8711 10.5303 22.349 10.2126 22.7241L12.4872 25L21.3278 16.1593L20.2893 15.1208C20.2226 15.0541 20.2226 14.9459 20.2893 14.8792C20.3561 14.8125 20.4642 14.8125 20.5309 14.8792ZM17.31 11.8998C17.2432 11.9666 17.1351 11.9666 17.0683 11.8998L15.9097 10.7412C15.843 10.6744 15.843 10.5663 15.9097 10.4996C15.9764 10.4328 16.0846 10.4328 16.1513 10.4996L17.31 11.6582C17.3767 11.725 17.3767 11.8331 17.31 11.8998ZM18.1002 12.6887C18.1669 12.622 18.275 12.622 18.3405 12.6887L19.5004 13.8487C19.5672 13.9154 19.5672 14.0236 19.5004 14.0903C19.4337 14.1557 19.3256 14.1557 19.2588 14.0903L18.1002 12.9303C18.0334 12.8636 18.0334 12.7555 18.1002 12.6887Z" fill="#fff" stroke="#ffb427" stroke-width="0.2" />
	</g>
</svg>