<svg xmlns="http://www.w3.org/2000/svg" viewBox="0 0 400.06 305.38"><defs><style>.cls-1{isolation:isolate;}.cls-2{fill:#ea720f;}.cls-16,.cls-3{fill:#72a37b;}.cls-19,.cls-4{fill:#fff;}.cls-5{fill:#9b4200;}.cls-6{fill:#ff9d8c;}.cls-7{fill:#e87200;}.cls-8{fill:#335d3b;}.cls-9{fill:#223a7a;}.cls-10{fill:#dff2e2;}.cls-11{fill:#d8efdb;}.cls-12{fill:#ff5f42;}.cls-13{fill:#9e4400;}.cls-14{fill:#ffb064;}.cls-15{fill:#55855e;}.cls-16{mix-blend-mode:multiply;}.cls-17{fill:#d2e6ff;}.cls-18{fill:#b95b00;}.cls-19{font-size:12px;font-family:Quicksand-Bold, Quicksand Bold;font-weight:700;}</style></defs><g class="cls-1"><g id="Layer_2" data-name="Layer 2"><g id="OBJECTS"><rect class="cls-2" x="319.29" y="137.86" width="54.62" height="32.28" rx="5"/><polygon class="cls-2" points="346.6 182.76 353.67 166 339.53 166 346.6 182.76"/><polygon class="cls-3" points="346.43 148.46 359.2 148.46 359.2 150.33 365.46 146.72 359.2 143.11 359.2 144.97 346.43 144.97 346.43 148.46"/><polygon class="cls-4" points="365.46 155.8 352.69 155.8 352.69 153.93 346.43 157.54 352.69 161.15 352.69 159.28 365.46 159.28 365.46 155.8"/><path class="cls-3" d="M338.59,159.09l-.61.22a19.1,19.1,0,0,1-2.88-4.52,16.41,16.41,0,0,1-1-5.24l.45-.18-2.7-6.47a5.48,5.48,0,0,0-1.31,1.49c-1.53,2.59-1.38,6.55.16,10.42s3.18,7.33,6.18,9.5a5.9,5.9,0,0,0,4.46,1.32Z"/><path class="cls-3" d="M340.53,158.33l-.84.3,2.76,6.62a5.44,5.44,0,0,0,.84-.36,1.62,1.62,0,0,0,.73-2l-1.45-3.64A1.61,1.61,0,0,0,340.53,158.33Z"/><path class="cls-3" d="M333.94,141.77a6.13,6.13,0,0,0-1.08.51l2.75,6.6.93-.39a1.59,1.59,0,0,0,.88-2.06L336,142.7A1.61,1.61,0,0,0,333.94,141.77Z"/><path class="cls-5" d="M83.67,276V201.52s-.83-20.07,9.72-25.86,55-2.69,55-2.69V276Z"/><path class="cls-6" d="M162.32,103.24s-2.69,22.55-3.72,24.42l-1,1.86L152.39,133s9.93,14.07,22.14,16.35,11.17-5,11.17-5l-1.86-3.93L186.32,119S164.18,108.83,162.32,103.24Z"/><path class="cls-4" d="M146,134.9l8.07-3.52s5.17,8.48,17.17,13.45,12.2,2.07,12.83,0a7.88,7.88,0,0,0-.21-4.35l.89-7.24,4.79,1.6,16.66,134.75-42.82,2.07Z"/><path class="cls-7" d="M185.49,133.38s2.9,6.69,5.59,22.41,5.17,42.21,5.79,60.42,1,59.79,1,59.79h54c.62,0,4.34-20.48,4.34-20.48S232.67,235.31,231.42,232c-.82-2.21-.41-43.1-3.93-61.93s-8.07-22.62-17.58-27.31C200.07,137.91,185.49,133.38,185.49,133.38Z"/><path class="cls-8" d="M213.63,252.29a.5.5,0,0,1-.5-.5c0-1.48-.26-22.49-.52-42.82s-.51-41.35-.51-42.83a.5.5,0,0,1,.5-.5.5.5,0,0,1,.5.5c0,1.48.26,22.49.51,42.82s.52,41.35.52,42.83A.5.5,0,0,1,213.63,252.29Z"/><path class="cls-5" d="M106.05,247.24,105.63,276h62.9s2.69-24.41,1.65-26.69S106.05,247.24,106.05,247.24Z"/><path d="M176.05,127a32.64,32.64,0,0,0,8.79,4.73L186.32,119s-16.63-7.62-22.27-13.29C165.23,112.12,168.13,120.65,176.05,127Z"/><path class="cls-6" d="M205.77,61.24a44.86,44.86,0,0,1,5.17,16.55c.83,9.11,0,32.49-7.45,42.42s-23,7-30,1C167,115.73,160.67,109.66,159,97.66s3.52-34.76,18.21-39.52S205.77,61.24,205.77,61.24Z"/><path class="cls-6" d="M224.43,263s-.73,0-1.84,0h-.85l-3.68-.1-.88,0c-1.3,0-2.41.13-3.45.07h0c-.22,0-.54,0-.8,0a1.94,1.94,0,0,1-.33,0,4.86,4.86,0,0,1-1.37-.54,93,93,0,0,0-21.46-2.86c-9.24,0-17.53.67-18.88-.46s-2.18-12.76,5.71-13.52l9.7,3.68s22.15-2.63,30.27,3.36S224.43,263,224.43,263Z"/><path class="cls-8" d="M213.7,262.89c-.22,0-.54,0-.8,0a9.39,9.39,0,0,0-.85-1.14c-2.5-2.55-8.54-4.2-10.73-4.73a.38.38,0,0,1-.28-.45.38.38,0,0,1,.46-.28c3.19.77,10,2.74,11.88,6C213.44,262.38,213.6,262.69,213.7,262.89Z"/><path class="cls-8" d="M218.07,262.85c-.29,0-.59,0-.88,0-2.73-5-7.2-6.41-12.72-8.18l-.33-.11a.38.38,0,0,1-.23-.48.37.37,0,0,1,.47-.23l.32.1C210.54,255.8,215.23,257.3,218.07,262.85Z"/><path class="cls-8" d="M222.59,263h-.85a21.79,21.79,0,0,0-14.38-10.66.38.38,0,0,1-.31-.44.4.4,0,0,1,.44-.3C215,253,221,259.05,222.59,263Z"/><path class="cls-3" d="M162.82,86.06a19.36,19.36,0,0,0,8.23-7.81,23.45,23.45,0,0,0,3.46-11.4s5.84-.59,14.36,2.5,18.65,7.21,27.61,2.76,9.44-12.4,5.4-16c-4.53-4-14.07-2.28-14.07-2.28s3.82-3.3,2-5.48-9.12.09-9.12.09-8.27-7.43-24.74-7.57-25,10.87-26.67,23.62,2.21,25.83,2.21,25.83Z"/><path class="cls-9" d="M197.35,90.52c-.94,2.3-.91,5-1.15,7.41-.18,1.89-.53,4.11,1.21,5.39.83.61,4.76,2.26,2.74,3.6a5.32,5.32,0,0,1-2.94.33l-1.82-.1c-.65-.05-1.28-.25-1.93-.25a.38.38,0,0,0-.19.7,8.11,8.11,0,0,0,3.79.9,5.73,5.73,0,0,0,3.14-.55,2.25,2.25,0,0,0,1.44-1.61,2.56,2.56,0,0,0-1.24-2.21c-.78-.58-1.74-.86-2.53-1.42-1.09-.78-1-2.11-.93-3.33.19-2.94.86-5.83,1.13-8.76,0-.45-.58-.45-.72-.1Z"/><path class="cls-10" d="M205.8,97.4c-.31,1.75-1.57,3-2.83,2.76s-2-1.82-1.72-3.56,1.58-3,2.84-2.76S206.11,95.66,205.8,97.4Z"/><path class="cls-11" d="M190,96c-.28,1.88-1.6,3.24-3,3s-2.23-1.89-1.95-3.77,1.61-3.24,3-3S190.25,94.14,190,96Z"/><path d="M202.12,90.21a28.33,28.33,0,0,0,2.92.07l.7.07c.16,0-.31,0-.08,0l.15,0,.36.07c.21,0,.41.13.62.18a2.38,2.38,0,0,0,.59.07l.31,0-.2,0a2.08,2.08,0,0,0,.4,0,1.07,1.07,0,0,0,.74-1.3,1,1,0,0,0-.21-.42l-.13-.17.12.14a1.09,1.09,0,0,0-.13-.17.58.58,0,0,0-.22-.22l-.23-.18a2.93,2.93,0,0,0-.9-.36,7.12,7.12,0,0,0-1.78-.23,13,13,0,0,0-1.76.14,3.42,3.42,0,0,0-1.51.56,1,1,0,0,0-.46,1,1,1,0,0,0,.7.81Z"/><path d="M191.08,87.45a3,3,0,0,0-.4-.21c-.12-.06-.44-.22-.2-.09l-.26-.14a5.66,5.66,0,0,0-1.25-.45,8.39,8.39,0,0,0-2.91-.2,6.75,6.75,0,0,0-2.87.9,1.54,1.54,0,0,0-.36.25l-.21.28.06-.09a1,1,0,0,0-.44.84.84.84,0,0,0,.45.74,1.27,1.27,0,0,0,1,0h-.53a1.71,1.71,0,0,0,.78,0l.11,0c-.17,0,.28,0,.33,0s.36,0,0,0l.18,0,.47-.05c.68,0,1.36-.08,2-.11s1.28,0,1.92,0l.81,0c.16,0,.09,0,0,0l.17,0,.33.11a1,1,0,0,0,.74-1.75Z"/><path class="cls-12" d="M196,116.21a9.36,9.36,0,0,1,4.68-4.21c-1.74-.18-9.92-.93-12,.24-2.31,1.31.43,6.59,5.22,6.85a6.23,6.23,0,0,0,1.39-.08A6.89,6.89,0,0,1,196,116.21Z"/><path class="cls-13" d="M158.18,105.1s.83,3.21,5.59,6.93a55,55,0,0,0,11.65,6.45l.56-2.41s-7.14-3.1-10.45-6.52-3.73-5.27-3.73-5.27Z"/><path class="cls-13" d="M176.8,114.28a6,6,0,0,1,6.24,4.81c.27,2-1.58,4.16-5.88,2.23C171.81,118.92,173,114.46,176.8,114.28Z"/><path class="cls-13" d="M161.18,81.41s1.66-11.89,9.62-20C186,46,198.94,47,198.94,47s-.1-2.18-5-3.83c-4.57-1.56-6.62-.73-6.62-.73s-12.52,1-23.07,12.73S152.6,81.72,152.6,81.72Z"/><path class="cls-4" d="M160.05,80c-10-1.69-15.52,6.1-15.94,14s5.3,13.84,12.94,13.24C174.22,105.83,172.25,82,160.05,80Z"/><path class="cls-13" d="M155.08,99.53A6.79,6.79,0,0,1,149,95.88a7.59,7.59,0,0,1,.29-7.82.37.37,0,0,1,.52-.09.36.36,0,0,1,.1.52,6.79,6.79,0,0,0-.25,7,6,6,0,0,0,5.66,3.26,6.57,6.57,0,0,0,5.43-2.93,8.3,8.3,0,0,0,.82-7.35A5.59,5.59,0,0,0,156,84.83a.37.37,0,0,1-.42-.32.36.36,0,0,1,.32-.42,6.26,6.26,0,0,1,6.38,4.14,9.08,9.08,0,0,1-.9,8,7.29,7.29,0,0,1-6,3.27Z"/><path class="cls-7" d="M147.84,132s-30.21,7.45-40.76,19.45-15.52,71.17-15.72,82.14,7.44,15.51,12,18.62,24.62,8.69,40.75,9.51,31.45,0,31.45,0A21.57,21.57,0,0,1,178,253c2.31-4.79,5.23-5.79,5.23-5.79l-13.86-5s-2.43-43.5-6.21-64.56C158.8,153.52,147.84,132,147.84,132Z"/><path class="cls-8" d="M197.91,235.33a.46.46,0,0,1-.2-.05.49.49,0,0,1-.26-.65c2.83-6.39,5.76-18.93,7.41-27.72l.14-.71c.5-2.59,1.12-5.81-.12-8-.63-1.13-2.06-3.59-3.44-5.95s-2.77-4.77-3.14-5.46c-.73-1.35,1.56-5,4.88-9.91.9-1.34,1.67-2.49,2.13-3.28,1.18-2,.39-3.92-.52-6.09l-.31-.75c-.83-2-1.77-4.07-2.68-6l-1.11-2.42L199.23,155a192.92,192.92,0,0,0-9.82-19.76.5.5,0,0,1,.17-.69.51.51,0,0,1,.69.17,193,193,0,0,1,9.87,19.87l1.46,3.26,1.11,2.41c.91,2,1.86,4,2.69,6.07l.31.74c.93,2.21,1.89,4.51.46,7-.47.81-1.25,2-2.16,3.33-1.73,2.59-5.33,8-4.84,8.88.37.68,1.71,3,3.14,5.44s2.81,4.83,3.44,6c1.42,2.54.76,6,.23,8.71l-.13.7c-.6,3.21-3.79,19.6-7.49,27.94A.49.49,0,0,1,197.91,235.33Z"/><path class="cls-8" d="M168.42,237.09a.5.5,0,0,1-.35-.15c-2.35-2.37-13.69-22-14.53-25.69-.47-2,.7-7.15,1.82-12.11.87-3.84,1.76-7.81,1.51-8.89-.38-1.6-3.28-4-6.09-6.26-3.38-2.77-6.88-5.63-7.56-8.21-.77-2.93-.11-21.26.32-33.4.16-4.36.28-7.81.28-9a.5.5,0,0,1,.5-.51h0a.5.5,0,0,1,.5.5c0,1.25-.12,4.71-.28,9.08-.41,11.34-1.09,30.32-.36,33.11.6,2.26,4.13,5.14,7.24,7.68s6,4.88,6.42,6.81c.31,1.3-.53,5-1.51,9.34-1,4.62-2.23,9.86-1.82,11.66.83,3.62,12,22.89,14.27,25.21a.51.51,0,0,1,0,.71A.51.51,0,0,1,168.42,237.09Z"/><path class="cls-8" d="M127.77,228.5h-.07a.52.52,0,0,1-.43-.57c.37-2.6,6.11-54.4,6.37-58.37a.5.5,0,0,1,.54-.46.49.49,0,0,1,.46.53c-.26,4-6,55.84-6.38,58.44A.5.5,0,0,1,127.77,228.5Z"/><path class="cls-8" d="M168.94,242.57a.46.46,0,0,1-.19,0c-1.27-.51-6.89-2.41-14-4.81-14.36-4.84-34-11.47-37.76-13.41a.5.5,0,1,1,.46-.89c3.67,1.91,24.1,8.8,37.62,13.35,7.13,2.41,12.76,4.31,14.06,4.83a.5.5,0,0,1,.27.66A.49.49,0,0,1,168.94,242.57Z"/><path class="cls-8" d="M162,263.19c-12.64,0-37.14-2.27-55.75-8.86a.49.49,0,0,1-.3-.63.51.51,0,0,1,.64-.31c23.51,8.32,56.39,9.74,62.51,8.36a.51.51,0,0,1,.6.38.5.5,0,0,1-.38.6A39.65,39.65,0,0,1,162,263.19Z"/><path class="cls-14" d="M17.4,139c3.93,3.45,8.9,5.66,12.34,9.65,1.35,1.57,2.57,3.24,3.83,4.89.91,1.19,3.35,3.18,3.75,4.69.18.66.14-.24,0-.9a.32.32,0,0,0,0-.09c-.34-3.05-.59-6.11-.69-9.17s.08-6.13-.11-9.19c-.27-4.31-1.62-8.48-5.14-11.18-1.72-1.32-3.93-2.12-5.51-3.58s-.9-3,0-4.54A15.26,15.26,0,0,0,27.93,115a8,8,0,0,0-1.31-5.47c-2.05-3.44-6.59-7.28-10.9-6.76-3.58.42-4,4.56-3.94,7.45s.33,5.6.35,8.4-.46,5.71-.5,8.58C11.56,132.1,13.82,135.82,17.4,139Z"/><path class="cls-14" d="M53.85,183.76a46.68,46.68,0,0,1,3.89-7.41c2.11-3.25,4.46-6.42,5.88-10.06s1.23-7.69,1.38-11.6c.1-2.88,1-5.74.73-8.63-.12-1.38-.91-3.62-2.7-3.39-1.39.18-2.22,1.91-2.76,3a52.68,52.68,0,0,0-2.27,6c-.27.78-.53,1.59-.87,2.35-.2.44-.83,1.52-1.43,1.37-1-.25-.09-4.4.06-5.13.76-3.69,1.9-7.13,2.06-10.93.23-5.5-.2-12.06-5.59-15.07-1.41-.79-3.19-1.26-4.53-.08S46,127.35,45.81,129c-.6,5.09.6,9.91,2.23,14.69,1.34,4,3,8,3.07,12.26.11,4.07-2,7.67-3,11.51a36.24,36.24,0,0,0-1.26,11.36c0,2.48.08,4.94.26,7.42.16,2.28.36,4.55.64,6.82.06.46.11.94.17,1.42C47,192.38,46.74,190,46,187.85c-1.28-3.77-2.78-7.45-4-11.23a95,95,0,0,0-3.34-9.28c-1.26-2.82-2.79-5.8-5.15-7.86a7.48,7.48,0,0,0-5.06-2,13.85,13.85,0,0,0-3.48.74,3.91,3.91,0,0,1-3.74-.66c-3.86-3-5-8.29-7.89-12.05C11.2,142.74,6.15,138,2.43,141c-2,1.62-2.52,4.75-2.42,7.16a17.27,17.27,0,0,0,3,8.28c1.66,2.68,3.82,5.08,5.35,7.84a8.29,8.29,0,0,1,.91,5,11.88,11.88,0,0,0,.3,5.07c1.77,5,7.29,4.31,11.59,4.44a32.16,32.16,0,0,1,9.09,1.5,10.13,10.13,0,0,1,6.63,6.53c.85,2.36,1.31,5,2.92,7A7.62,7.62,0,0,0,42.68,196c1.67.74,6.78,1.06,6.82.59a23.41,23.41,0,0,1,1.33-4.69C51.7,189.16,52.73,186.45,53.85,183.76Z"/><path class="cls-14" d="M77.58,182.82c-.44-2.87-.36-6-1.71-8.66a.4.4,0,0,0-.53-.13c-1,.54-1,2.11-1.09,3.07-.13,1.59,0,3.19-.23,4.78a36.07,36.07,0,0,1-2,8.32,8.94,8.94,0,0,1-6.22,5.6,15.87,15.87,0,0,0-5.45,2.4,11.49,11.49,0,0,0-3.19,4.41c-2,4.5-3,9.54-3.9,14.36-.63,3.24-1.14,6.5-1.93,9.7a96.93,96.93,0,0,0-2.08,9.68c-.07.17-.16.33-.23.5-.2.49.56.75.83.34,3.11-4.78,6.89-9.07,12-11.71,2.34-1.19,5.43-1.43,7.38-3.3,1.48-1.42,1.68-3.59,1.46-5.53-.29-2.54-1.51-4.63-2.77-6.8-.7-1.19-1.52-2.46-1.24-3.9a5,5,0,0,1,2.52-3.07c2.15-1.33,4.66-1.93,6.42-3.85a10.56,10.56,0,0,0,2.71-6.41A43.59,43.59,0,0,0,77.58,182.82Z"/><path class="cls-14" d="M35.22,199.33a41.08,41.08,0,0,0-9.78-9.05c-2-1.32-6.67-3.93-7.62,0-.55,2.28,1.68,4.52,3.15,5.95,2.21,2.15,4.76,4,6.63,6.48-2.31.74-4.72.88-6.73,2.48-2.37,1.88-3.43,5.53-1.08,7.84a15,15,0,0,0,4.09,2.51c1.86.9,3.75,1.72,5.65,2.51,4.11,1.72,8.27,3.46,11.77,6.27s6.93,7.71,7.21,12.38c0,.44-.14,0,.13-.16.14.13.63-.11.63-.37a49.32,49.32,0,0,0-4.15-19.89A83.1,83.1,0,0,0,35.22,199.33Z"/><path class="cls-15" d="M25.75,134.77c1.51,3.14,3.09,6.21,4.77,9.27a73.94,73.94,0,0,1,4.44,9c1.49,3.87,3,7.68,4.62,11.52a114.5,114.5,0,0,1,4.28,12.2,144.48,144.48,0,0,1,4.83,24.81,99.8,99.8,0,0,1,.5,12.82c-.09,3.35-.47,6.66-.78,10a58.77,58.77,0,0,0-.27,10.44c.24,2.91.7,6.36,3,8.43a.52.52,0,0,0,.81-.62c-2.67-5.5-2.52-11.48-2-17.44.28-3.29.67-6.56.78-9.86a97.83,97.83,0,0,0-.42-12.58,147.81,147.81,0,0,0-4.54-24.32,110,110,0,0,0-4-12c-1.56-3.94-3.36-7.78-4.87-11.74-2.73-7.17-6.89-13.52-10.58-20.2-.19-.35-.69,0-.52.3Z"/><path class="cls-15" d="M48.81,193.38c.43-5.22.9-10.25,2.66-15.22.82-2.33,1.81-4.58,2.6-6.92.66-1.92,1.64-4.57,1.13-6.61a.23.23,0,0,0-.45,0c-.34,1.17-.3,2.45-.54,3.65a31.9,31.9,0,0,1-.92,3.45c-.77,2.41-1.78,4.72-2.65,7.09a35.1,35.1,0,0,0-2.19,14.56.18.18,0,0,0,.36,0Z"/><path class="cls-15" d="M18.57,163.39c2.07,5,8.3,5.29,12.83,6.41a12,12,0,0,1,7.35,5.77A44.37,44.37,0,0,1,43,185.66s.06,0,.06,0c-1.27-6-3.09-13.22-9.27-16-5-2.23-11.49-1.11-14.66-6.46-.15-.26-.64-.09-.51.22Z"/><path class="cls-9" d="M45.54,192.59c.24.33.47.68.72,1a2.57,2.57,0,0,0,.42.45.93.93,0,0,0,.57.29.13.13,0,0,0,.11-.19,2.3,2.3,0,0,0-.43-.39l-.45-.4c-.28-.27-.55-.57-.83-.85-.06-.05-.16,0-.11.09Z"/><path class="cls-15" d="M32.58,208.46a50.79,50.79,0,0,1,9.49,10.21,62,62,0,0,1,3.46,5.69,65.54,65.54,0,0,1,2.79,6.58c.07.17.38.18.35,0-.49-4.71-3.47-8.74-5.86-12.66a30.41,30.41,0,0,0-4.44-5.37,39.16,39.16,0,0,0-5.47-4.82c-.24-.18-.55.22-.32.41Z"/><path class="cls-15" d="M61,202.92c-1.72,1-1.78,3.7-1.81,5.43-.07,3.34.76,6.47-.71,9.65-1.32,2.87-3.43,5.27-5.09,7.93-1.56,2.5-3.09,5.69-3.06,8.69,0,.17.27.27.35.1a34.53,34.53,0,0,0,1.3-4.35,18.75,18.75,0,0,1,2.12-4.48c1.6-2.47,3.56-4.72,4.86-7.39s1.17-5.58,1.08-8.63c-.06-1.94-.26-5.05,1.31-6.49a.29.29,0,0,0-.35-.46Z"/><path class="cls-4" d="M49.53,234.93c-6.93-.09-20.14-.17-20.14-.17L32.66,259a11,11,0,0,0,10.9,9.53H55.5A11,11,0,0,0,66.4,259l3.27-24.26S56.46,234.84,49.53,234.93Z"/><polygon class="cls-3" points="384.63 190.34 345.08 268.69 229.77 269.52 265.36 189.24 384.63 190.34"/><path class="cls-3" d="M153.24,269l0-6.27h74.65l34.34-75.31H381.63l3,2.89H268L232.32,269S153.24,268.82,153.24,269Z"/><path class="cls-3" d="M324.75,233.58c-1.3,3.91-8.37,6.92-15.79,6.74s-12.38-3.51-11.07-7.41,8.37-6.93,15.79-6.74S326.06,229.67,324.75,233.58Z"/><path class="cls-4" d="M232.32,269.47a.54.54,0,0,1-.21-.05.49.49,0,0,1-.24-.66l35.82-78.92H384.63a.5.5,0,0,1,.5.5.5.5,0,0,1-.5.5H268.33l-35.55,78.33A.51.51,0,0,1,232.32,269.47Z"/><rect class="cls-3" x="10.87" y="274.97" width="137.17" height="30.41"/><rect class="cls-3" x="147.26" y="274.97" width="246.8" height="30.41"/><polygon class="cls-16" points="148.04 274.97 147.26 274.97 10.87 274.97 10.87 280.55 147.26 280.55 148.04 280.55 394.06 280.55 394.06 274.97 148.04 274.97"/><rect class="cls-3" x="4.25" y="268.97" width="149.79" height="7.45"/><rect class="cls-3" x="153.26" y="268.97" width="246.8" height="7.45"/><rect class="cls-4" x="59.56" y="74.37" width="59.28" height="35.03" rx="5.43"/><polygon class="cls-4" points="132.64 91.88 114.45 84.21 114.45 99.56 132.64 91.88"/><circle class="cls-7" cx="77.71" cy="91.88" r="3.35"/><circle class="cls-7" cx="89.2" cy="91.88" r="3.35"/><circle class="cls-7" cx="100.69" cy="91.88" r="3.35"/><path class="cls-2" d="M359.94,0H248.15a13,13,0,0,0-13,13V66a13,13,0,0,0,13,13h10c.28,4.81-.41,12-4.42,21.11A56.26,56.26,0,0,0,278,79h81.95a13,13,0,0,0,13-13V13A13,13,0,0,0,359.94,0Z"/><path class="cls-4" d="M312.25,25.28H256.8a2.76,2.76,0,0,1-2.75-2.76h0a2.75,2.75,0,0,1,2.75-2.76h55.45A2.75,2.75,0,0,1,315,22.52h0A2.76,2.76,0,0,1,312.25,25.28Z"/><path class="cls-17" d="M352,41.35H255.73a1.69,1.69,0,0,1-1.68-1.69h0A1.68,1.68,0,0,1,255.73,38H352a1.69,1.69,0,0,1,1.69,1.69h0A1.69,1.69,0,0,1,352,41.35Z"/><path class="cls-17" d="M352,50.72H255.73A1.68,1.68,0,0,1,254.05,49h0a1.68,1.68,0,0,1,1.68-1.68H352A1.69,1.69,0,0,1,353.7,49h0A1.69,1.69,0,0,1,352,50.72Z"/><path class="cls-17" d="M331,60.72H255.73A1.68,1.68,0,0,1,254.05,59h0a1.68,1.68,0,0,1,1.68-1.68H331A1.69,1.69,0,0,1,332.7,59h0A1.69,1.69,0,0,1,331,60.72Z"/><path class="cls-4" d="M351.25,25.28H324.8a2.76,2.76,0,0,1-2.75-2.76h0a2.75,2.75,0,0,1,2.75-2.76h26.45A2.75,2.75,0,0,1,354,22.52h0A2.76,2.76,0,0,1,351.25,25.28Z"/><rect class="cls-4" x="252.55" y="122.72" width="34.03" height="24.52" rx="2"/><path class="cls-3" d="M269.78,138.65a.74.74,0,0,1-.48-.18L253,125a.75.75,0,0,1-.11-1,.76.76,0,0,1,1.06-.1l15.86,13.09,15.45-13.44a.75.75,0,0,1,1,1.13l-15.93,13.86A.72.72,0,0,1,269.78,138.65Z"/><path class="cls-3" d="M253.43,146.68a.75.75,0,0,1-.54-1.27l11.43-12a.75.75,0,0,1,1.06,0,.75.75,0,0,1,0,1.06l-11.43,12A.78.78,0,0,1,253.43,146.68Z"/><path class="cls-3" d="M285.71,146.24a.73.73,0,0,1-.53-.22l-11.39-11.41a.77.77,0,0,1,0-1.07.75.75,0,0,1,1.06,0L286.24,145a.75.75,0,0,1,0,1.06A.74.74,0,0,1,285.71,146.24Z"/><circle class="cls-18" cx="288.15" cy="121.97" r="10.03"/><text class="cls-19" transform="translate(281.1 126.2)">85</text><rect class="cls-2" x="326.31" y="101.1" width="66.62" height="17.17" rx="4"/><path class="cls-4" d="M334.54,114.19a.78.78,0,0,1-.63-.28,1,1,0,0,1-.21-.71L334,111c0-.06,0-.09,0-.11s-.08,0-.14,0L332,112.22a.84.84,0,0,1-.7.18,1,1,0,0,1-.69-1.22.88.88,0,0,1,.52-.48l2.06-.93c.05,0,.08,0,.08-.08s0-.07-.08-.09l-2.06-.93a.86.86,0,0,1-.51-.53,1,1,0,0,1,.09-.73.88.88,0,0,1,.59-.44.9.9,0,0,1,.7.16l1.83,1.35c.06,0,.11,0,.14,0s.05,0,0-.11l-.25-2.22a.92.92,0,0,1,.22-.71.9.9,0,0,1,.68-.28.87.87,0,0,1,.65.28.84.84,0,0,1,.19.71l-.25,2.22c0,.06,0,.1,0,.11s.08,0,.14,0l1.83-1.33a.86.86,0,0,1,.72-.18.79.79,0,0,1,.57.44.86.86,0,0,1,.1.79.9.9,0,0,1-.52.47l-2.05.93q-.09,0-.09.09s0,.06.09.08l2.05.93a.88.88,0,0,1,.52.53.83.83,0,0,1-.1.74.78.78,0,0,1-.57.43.92.92,0,0,1-.72-.15l-1.83-1.35c-.06,0-.1-.05-.14,0s-.05,0,0,.11l.25,2.22a.81.81,0,0,1-.21.71A.9.9,0,0,1,334.54,114.19Z"/><path class="cls-4" d="M346.67,114.19a.79.79,0,0,1-.64-.28,1,1,0,0,1-.21-.71l.26-2.22c0-.06,0-.09,0-.11a.13.13,0,0,0-.14,0l-1.83,1.32a.92.92,0,0,1-1.4-1,.9.9,0,0,1,.53-.48l2.05-.93c.06,0,.08,0,.08-.08s0-.07-.08-.09l-2.05-.93a.81.81,0,0,1-.51-.53.9.9,0,0,1,.08-.73.88.88,0,0,1,.59-.44.92.92,0,0,1,.71.16l1.83,1.35a.15.15,0,0,0,.14,0s0,0,0-.11l-.26-2.22a.93.93,0,0,1,.23-.71.88.88,0,0,1,.67-.28.85.85,0,0,1,.65.28.84.84,0,0,1,.2.71l-.26,2.22c0,.06,0,.1,0,.11a.15.15,0,0,0,.14,0l1.83-1.33A.88.88,0,0,1,350,107a.8.8,0,0,1,.58.44.86.86,0,0,1,.1.79.91.91,0,0,1-.53.47l-2.05.93c-.06,0-.08.05-.08.09s0,.06.08.08l2.05.93a.89.89,0,0,1,.53.53.86.86,0,0,1-.1.74.79.79,0,0,1-.58.43.94.94,0,0,1-.72-.15l-1.83-1.35a.13.13,0,0,0-.14,0s0,0,0,.11l.26,2.22a.81.81,0,0,1-.21.71A.9.9,0,0,1,346.67,114.19Z"/><path class="cls-4" d="M358.79,114.19a.78.78,0,0,1-.63-.28,1,1,0,0,1-.21-.71l.25-2.22c0-.06,0-.09,0-.11s-.08,0-.14,0l-1.83,1.32a.84.84,0,0,1-.7.18,1,1,0,0,1-.69-1.22.88.88,0,0,1,.52-.48l2.05-.93c.06,0,.09,0,.09-.08s0-.07-.09-.09l-2.05-.93a.86.86,0,0,1-.51-.53,1,1,0,0,1,.09-.73.88.88,0,0,1,.59-.44.9.9,0,0,1,.7.16l1.83,1.35c.06,0,.1,0,.14,0s.05,0,0-.11l-.25-2.22a.92.92,0,0,1,.22-.71.9.9,0,0,1,.68-.28.83.83,0,0,1,.84,1l-.25,2.22c0,.06,0,.1,0,.11s.08,0,.14,0l1.83-1.33a.86.86,0,0,1,.72-.18.79.79,0,0,1,.57.44.86.86,0,0,1,.1.79.9.9,0,0,1-.52.47l-2.05.93q-.09,0-.09.09s0,.06.09.08l2.05.93a.88.88,0,0,1,.52.53.86.86,0,0,1-.1.74.78.78,0,0,1-.57.43.92.92,0,0,1-.72-.15l-1.83-1.35c-.06,0-.11-.05-.14,0s-.05,0,0,.11l.25,2.22a.81.81,0,0,1-.21.71A.9.9,0,0,1,358.79,114.19Z"/><path class="cls-4" d="M370.92,114.19a.79.79,0,0,1-.64-.28,1,1,0,0,1-.21-.71l.26-2.22c0-.06,0-.09,0-.11a.13.13,0,0,0-.14,0l-1.83,1.32a.92.92,0,0,1-1.4-1,.91.91,0,0,1,.52-.48l2.06-.93c.06,0,.08,0,.08-.08s0-.07-.08-.09l-2.06-.93a.82.82,0,0,1-.5-.53.9.9,0,0,1,.08-.73.88.88,0,0,1,.59-.44.92.92,0,0,1,.71.16l1.83,1.35a.15.15,0,0,0,.14,0s0,0,0-.11l-.26-2.22a.93.93,0,0,1,.23-.71.88.88,0,0,1,.67-.28.85.85,0,0,1,.65.28.84.84,0,0,1,.2.71l-.26,2.22c0,.06,0,.1,0,.11a.15.15,0,0,0,.14,0l1.83-1.33a.88.88,0,0,1,.72-.18.8.8,0,0,1,.58.44.82.82,0,0,1,.09.79.87.87,0,0,1-.52.47l-2.05.93c-.06,0-.08.05-.08.09s0,.06.08.08l2.05.93a.85.85,0,0,1,.52.53.82.82,0,0,1-.09.74.79.79,0,0,1-.58.43.94.94,0,0,1-.72-.15l-1.83-1.35a.13.13,0,0,0-.14,0s0,0,0,.11l.26,2.22a.84.84,0,0,1-.21.71A.9.9,0,0,1,370.92,114.19Z"/><path class="cls-3" d="M383,114.19a.78.78,0,0,1-.63-.28,1,1,0,0,1-.21-.71l.25-2.22c0-.06,0-.09,0-.11s-.08,0-.14,0l-1.83,1.32a.85.85,0,0,1-1.29-.25.86.86,0,0,1-.1-.79.88.88,0,0,1,.52-.48l2.05-.93c.06,0,.09,0,.09-.08s0-.07-.09-.09l-2.05-.93a.86.86,0,0,1-.51-.53,1,1,0,0,1,.09-.73.86.86,0,0,1,.59-.44.9.9,0,0,1,.7.16l1.83,1.35c.06,0,.1,0,.14,0s.05,0,0-.11l-.25-2.22a.92.92,0,0,1,.22-.71.9.9,0,0,1,.68-.28.83.83,0,0,1,.84,1l-.25,2.22c0,.06,0,.1,0,.11s.08,0,.14,0l1.83-1.33a.85.85,0,0,1,.71-.18.79.79,0,0,1,.58.44.86.86,0,0,1,.1.79.9.9,0,0,1-.52.47l-2.05.93q-.09,0-.09.09s0,.06.09.08l2.05.93a.88.88,0,0,1,.52.53.86.86,0,0,1-.1.74.77.77,0,0,1-.58.43.91.91,0,0,1-.71-.15l-1.83-1.35c-.06,0-.11-.05-.14,0s-.05,0,0,.11l.25,2.22a.81.81,0,0,1-.21.71A.9.9,0,0,1,383,114.19Z"/></g></g></g></svg>