<?xml version="1.0" encoding="utf-8"?>
<!DOCTYPE svg PUBLIC "-//W3C//DTD SVG 1.0//EN" "http://www.w3.org/TR/2001/REC-SVG-20010904/DTD/svg10.dtd">
<svg version="1.0" xmlns="http://www.w3.org/2000/svg" width="1300px" height="473px" viewBox="0 0 1300 473" preserveAspectRatio="xMidYMid meet">
 <g fill="none" stroke="#1e1e1e" stroke-width="0.5">
  <path d="M307.40 462.35 l-10.35 -10.50 1.35 -1.65 c3 -3.80 10.10 -8.60 15.60 -10.65 7.20 -2.60 17.65 -2.75 24.75 -0.35 10.10 3.45 18.40 10.95 22.75 20.50 1.75 3.85 3 8.55 3 11.25 l0 2.05 -23.35 -0.10 -23.40 -0.05 -10.35 -10.50z"/>
  <path d="M374.25 471.15 c-1.40 -9.50 -3.55 -15.65 -7.35 -21.50 -14.25 -21.80 -42.15 -28.30 -64.50 -15.05 -3.75 2.25 -8.35 6.05 -10.60 8.90 -0.85 1.10 -1.70 1.95 -1.85 1.95 -0.15 0.05 -1.85 -0.95 -3.75 -2.25 -1.90 -1.25 -5.15 -3.05 -7.20 -4.10 -2.05 -1 -3.85 -1.85 -3.95 -1.95 -0.15 -0.10 2.10 -2.50 4.90 -5.40 4.65 -4.70 5.60 -6.25 3.90 -6.25 -0.30 0 -3 2.40 -5.95 5.35 l-5.35 5.30 -3.80 -1.10 c-2.10 -0.65 -5.50 -1.40 -7.55 -1.75 l-3.75 -0.55 21.80 -21.75 c12 -11.95 22 -22.10 22.25 -22.55 0.35 -0.55 0.25 -1 -0.15 -1.35 -0.50 -0.45 -6.15 4.95 -23.60 22.35 l-23 22.90 -6.25 0.05 c-16.65 0.10 -32.60 6.45 -44.55 17.85 -5.15 4.95 -7.35 5.45 -10.25 2.55 -1.95 -1.95 -2.25 -4.25 -0.90 -6.30 0.50 -0.70 4.85 -5.30 9.70 -10.25 4.85 -4.95 9.30 -9.80 9.85 -10.75 4.25 -7.10 4.20 -18 -0.10 -25.30 -1.90 -3.25 -6.05 -7.20 -9.55 -9.05 -7.80 -4.15 -16 -4.15 -23.90 -0.05 -2.15 1.15 -5.10 3.60 -10 8.45 l-6.95 6.90 -1.50 -0.80 c-2.20 -1.10 -5.30 -0.60 -6.70 1.20 -1.35 1.65 -1.50 4.85 -0.35 6.40 0.70 0.90 -0.25 1.95 -17.40 19.15 -10 10 -18.75 18.50 -19.50 18.90 -0.75 0.40 -2 0.70 -2.80 0.70 -3.35 0 -6.65 -4.15 -5.85 -7.35 0.20 -0.90 5 -6.10 13.45 -14.65 13.45 -13.60 15.50 -16.10 17.35 -20.95 6.05 -16.25 -3.25 -34.05 -20.10 -38.35 -2.40 -0.60 -4.50 -0.75 -8.45 -0.55 -8.60 0.45 -13.25 2.70 -20.90 10.20 -2.90 2.80 -6.15 5.55 -7.30 6.05 -3.20 1.50 -6.40 1.80 -9.55 0.90 -7.60 -2.25 -11.80 -10 -9.50 -17.60 0.90 -2.85 1.50 -3.55 16 -18.20 8.30 -8.40 15.55 -15.95 16.15 -16.85 3.70 -5.35 5.60 -11.50 5.60 -18.25 0 -12.60 -6.40 -23.05 -17.60 -28.70 -10.10 -5.10 -23 -4.15 -32.55 2.35 -0.90 0.60 -12.55 12.05 -25.95 25.40 l-24.40 24.30 0 -27.15 0 -27.10 2.70 0 c3.20 0 5.60 -0.90 8.05 -3.10 3 -2.60 3.90 -4.90 3.65 -9.45 -0.15 -3.35 -0.35 -4.15 -1.65 -6 -0.85 -1.20 -2.65 -2.85 -3.95 -3.70 -2.05 -1.25 -2.95 -1.50 -5.60 -1.50 l-3.20 0 0 -130.85 0 -130.90 432.50 0 432.50 0 0 2.70 c0 3.15 0.45 4.70 1.05 3.75 0.25 -0.40 0.50 0.10 0.70 1.35 1.95 12.75 10.25 24.40 21.90 30.90 13.30 7.40 30.75 7.10 44.05 -0.80 3.75 -2.20 10.35 -8.25 13 -11.85 4.15 -5.65 7.50 -14.75 8.10 -21.90 l0.35 -4.15 20.15 0 c18.70 0 20.15 0.05 20.50 0.90 0.15 0.45 5.10 5.50 10.90 11.15 9.20 8.95 11.05 10.50 14.30 12.15 9.60 4.70 20.85 4.50 30 -0.55 2.25 -1.25 5.45 -4 10.50 -8.95 4 -3.90 7.90 -7.40 8.70 -7.70 2.60 -0.95 6.15 1 7.05 3.90 0.90 2.95 0.30 3.70 -18.70 22.85 -10.55 10.65 -18.95 19.45 -19.70 20.75 -2.65 4.70 -3.50 8.30 -3.50 14.50 0 5.05 0.15 6.20 1.40 9.50 2.45 6.60 6.65 11.70 12.50 15.25 4.70 2.80 8.60 3.80 14.75 3.80 6.40 0 11.05 -1.35 16 -4.75 2.10 -1.45 19.45 -18.45 48.50 -47.55 l45.25 -45.25 11.85 0 c6.55 0 11.90 0.15 11.90 0.30 0 0.20 -6.80 7.10 -15.15 15.40 -16.35 16.25 -18.60 18.80 -21.05 23.80 -6.95 13.85 -5.85 29.35 2.95 41.75 12.60 17.80 37.20 22 55.75 9.60 1.25 -0.80 15.65 -14.85 32 -31.15 l29.80 -29.70 2.20 0 c3.10 0 5.30 1.45 6.05 3.95 0.30 1.05 0.45 2.50 0.30 3.15 -0.20 0.70 -18.30 19.20 -42.75 43.70 -41.65 41.65 -42.50 42.50 -44.40 46.45 -1.95 3.95 -1.95 4 -1.95 10 0 5.70 0.10 6.15 1.60 9.40 5.65 11.85 19.55 16.70 31.30 10.80 1.30 -0.65 7.45 -6.40 16.20 -15.10 13.45 -13.35 14.15 -14 15.05 -13.20 1.45 1.30 4.70 1.10 6.50 -0.40 1.85 -1.55 2.20 -3.35 1.25 -6.20 l-0.75 -2.20 10.95 -11 c11.95 -12.05 14.10 -13.85 16.25 -13.85 l1.40 0 0 7.70 c0 4.25 -0.20 7.80 -0.45 7.90 -0.70 0.25 -5.05 7.25 -6.55 10.55 -2.75 6.15 -3.75 11.30 -3.75 19.60 0 6.10 0.25 8.25 1.15 11.65 1.35 5.20 4.40 11.70 7.35 15.85 l2.25 3.20 0 8.30 c0 7.80 -0.05 8.35 -0.85 7.95 -1.60 -0.70 -5.70 -0.80 -7.90 -0.20 -6.45 1.80 -10.15 10.05 -7.30 16.30 2.15 4.70 7.45 7.70 12.40 6.95 1.25 -0.20 2.60 -0.45 2.95 -0.60 0.60 -0.20 0.70 20 0.70 131.05 l0 131.30 -413.40 0 -413.40 0 -0.55 -3.30 c-0.90 -5.15 -3.55 -10.10 -7.50 -14.05 -8.85 -8.80 -21.55 -10.65 -32.75 -4.80 -6.75 3.55 -12.45 11.30 -13.95 19.05 l-0.60 3.10 -21.65 0 -21.65 0 -0.30 -1.85z m50.50 -44.70 c0.50 -1.45 -1.25 -3.20 -2.70 -2.70 -1.60 0.50 -1.95 2.70 -0.60 3.85 1.35 1.05 2.80 0.55 3.30 -1.15z m10.75 0.45 c0.70 -1.30 0.65 -1.45 -0.35 -2.50 -0.95 -0.90 -1.30 -1 -2.30 -0.55 -1.65 0.75 -2 2.50 -0.80 3.70 1.30 1.30 2.45 1.05 3.45 -0.65z m11.40 -0.75 c0.20 -1.35 -1.55 -2.85 -2.85 -2.40 -1.65 0.50 -1.95 2.70 -0.55 3.85 1 0.80 1.25 0.85 2.20 0.25 0.60 -0.40 1.10 -1.15 1.20 -1.70z m10.10 1.35 c0.55 -0.55 1 -1.30 1 -1.70 0 -0.70 -1.80 -2.30 -2.60 -2.30 -0.70 0 -1.90 1.60 -1.90 2.50 0 0.95 1.25 2.50 2.05 2.50 0.25 0 0.90 -0.45 1.45 -1z m11.75 -1.05 c0.50 -1.45 -1.25 -3.20 -2.70 -2.70 -1.60 0.50 -1.95 2.70 -0.60 3.85 1.35 1.05 2.80 0.55 3.30 -1.15z m10.75 -0.40 c0 -1.75 -1.10 -2.75 -2.50 -2.30 -1.50 0.45 -2.15 2 -1.40 3.20 1.30 2.05 3.90 1.45 3.90 -0.90z m11.40 0.10 c0.20 -1.35 -1.55 -2.85 -2.85 -2.40 -1.65 0.50 -1.95 2.70 -0.55 3.85 1 0.80 1.25 0.85 2.20 0.25 0.60 -0.40 1.10 -1.15 1.20 -1.70z m10.10 1.45 c1.30 -1.05 1.05 -2.75 -0.55 -3.60 -2.20 -1.20 -4 1.85 -2.15 3.70 1 1 1.35 1 2.70 -0.10z m-76.50 -11.60 c0.75 -1.45 0.15 -2.95 -1.30 -3.30 -1.50 -0.40 -2.70 0.55 -2.70 2 0 2.30 2.95 3.20 4 1.30z m11.10 -0.25 c1.15 -2.55 -2.35 -4.35 -3.90 -2 -0.60 0.90 -0.55 1.20 0.10 2.15 1.05 1.55 3.05 1.45 3.80 -0.15z m10.90 0.25 c0.70 -1.30 0.20 -2.85 -1 -3.25 -2.20 -0.70 -4 2.05 -2.40 3.65 0.95 0.95 2.80 0.70 3.40 -0.40z m10.70 0.20 c0.45 -0.40 0.80 -1.10 0.80 -1.45 0 -0.35 -0.35 -1.05 -0.80 -1.45 -1.50 -1.50 -3.70 -0.65 -3.70 1.45 0 2.10 2.20 2.95 3.70 1.45z m11.30 -0.20 c0.75 -1.45 0.15 -2.95 -1.30 -3.30 -1.50 -0.40 -2.70 0.55 -2.70 2 0 2.30 2.95 3.20 4 1.30z m10.90 -0.65 c0.35 -2.85 -2.50 -3.85 -3.75 -1.35 -0.50 1 -0.45 1.35 0.20 2.15 0.50 0.50 1.35 0.85 2.10 0.75 1 -0.10 1.35 -0.45 1.45 -1.55z m11.10 0.65 c0.75 -1.45 0.15 -2.95 -1.30 -3.30 -1.50 -0.40 -2.70 0.55 -2.70 2 0 2.30 2.95 3.20 4 1.30z m10.70 0.20 c1 -1 1 -1.65 -0.05 -2.80 -1.45 -1.60 -3.65 -0.80 -3.65 1.35 0 2.10 2.20 2.95 3.70 1.45z m-350.65 -50.10 c1.20 -1.05 1.60 -1.95 1.80 -3.65 0.25 -2.05 0.10 -2.50 -1.30 -4.10 -1.85 -2.05 -3.85 -2.65 -6.30 -1.85 -3.80 1.25 -4.90 6.50 -1.95 9.55 1.15 1.20 1.80 1.45 3.80 1.45 1.90 0 2.70 -0.30 3.95 -1.40z m12.25 -12.30 c1.50 -1.50 1.70 -2 1.70 -4.20 0 -2.25 -0.20 -2.65 -1.75 -4.05 -3.05 -2.65 -7.60 -1.75 -9.10 1.80 -1.05 2.55 -0.50 4.75 1.65 6.60 2.50 2.25 5.20 2.15 7.50 -0.15z m-47.60 -71.80 c0.70 -0.25 2.15 -1.30 3.30 -2.30 4.25 -3.85 4.40 -10.65 0.30 -15.10 -4.30 -4.75 -12.75 -4.05 -16.55 1.35 -1.35 1.95 -1.50 2.50 -1.50 6.05 0 3.55 0.15 4.10 1.50 6.10 2.20 3.05 4.75 4.40 8.60 4.40 1.70 0 3.65 -0.20 4.35 -0.50z m1023.10 -196.70 c1.40 -1.40 1.70 -2.05 1.70 -3.90 0 -2.50 -0.95 -4.10 -3.10 -5.20 -3 -1.55 -6.90 0.30 -7.95 3.75 -0.45 1.60 -0.40 2.15 0.30 3.55 1.30 2.55 2.70 3.45 5.20 3.50 1.80 0 2.45 -0.30 3.85 -1.70z m-176.80 -6.55 l4.75 -4.75 2.45 1.75 c3.80 2.70 7.35 3.85 12.85 4.10 8 0.45 14.10 -2 19.65 -7.85 5.30 -5.65 7.10 -10.75 6.70 -19.05 -0.20 -4.30 -0.45 -5.30 -2.05 -8.70 -6.30 -13.25 -21.40 -18.45 -34.80 -11.95 -3.55 1.75 -8.90 7.05 -10.65 10.70 -4.35 8.80 -3.60 19.05 1.90 26.50 1.20 1.65 2.20 3.20 2.20 3.40 0 0.25 -1.50 1.90 -3.35 3.70 -4.90 4.70 -5.80 5.75 -5.40 6.35 0.15 0.30 0.45 0.55 0.65 0.55 0.20 0 2.50 -2.15 5.10 -4.75z"/>
  <path d="M978.60 74.50 c-2.55 -0.55 -8.10 -3.40 -8.10 -4.20 0 -0.30 1.45 -2.05 3.25 -3.80 1.80 -1.75 3.25 -3.50 3.25 -3.85 0 -1.45 -1.75 -0.45 -4.85 2.85 l-3.35 3.50 -1.10 -1.05 c-1.85 -1.75 -4.10 -6.50 -4.70 -10 -2.45 -14.15 11.60 -26.70 25.35 -22.55 3.85 1.20 8.25 4.10 10.35 6.80 0.75 1 1.95 3.10 2.70 4.70 1.10 2.45 1.30 3.55 1.30 7.85 0.05 4.70 -0.05 5.20 -1.65 8.50 -3.30 6.70 -9.55 11.05 -16.65 11.50 -2 0.10 -4.60 0 -5.80 -0.25z"/>
 </g>
 <g fill="#eda84c">
  <path d="M0 406.35 l0 -66.60 24.40 -24.30 c13.40 -13.35 25.05 -24.80 25.95 -25.40 9.55 -6.50 22.45 -7.45 32.55 -2.35 11.20 5.65 17.60 16.10 17.60 28.70 0 6.75 -1.90 12.90 -5.60 18.25 -0.60 0.90 -7.85 8.45 -16.15 16.85 -14.50 14.65 -15.10 15.35 -16 18.20 -2.30 7.60 1.90 15.35 9.50 17.60 3.15 0.90 6.35 0.60 9.55 -0.90 1.15 -0.50 4.40 -3.25 7.30 -6.05 7.65 -7.50 12.30 -9.75 20.90 -10.20 8.95 -0.45 15.60 2 21.80 8.10 9.65 9.45 11.40 24.85 4.10 36.05 -0.90 1.35 -7.50 8.40 -14.70 15.70 -8.45 8.55 -13.25 13.75 -13.45 14.65 -0.80 3.20 2.50 7.35 5.85 7.35 0.80 0 2.05 -0.30 2.80 -0.70 0.75 -0.40 9.50 -8.90 19.50 -18.90 17.15 -17.20 18.10 -18.25 17.40 -19.15 -1.15 -1.55 -1 -4.75 0.35 -6.40 1.40 -1.80 4.50 -2.30 6.70 -1.20 l1.50 0.80 6.95 -6.90 c7.40 -7.30 10.45 -9.35 15.95 -10.80 10.25 -2.65 22.15 2.30 27.50 11.45 4.30 7.30 4.35 18.20 0.10 25.30 -0.55 0.95 -5 5.80 -9.85 10.75 -4.85 4.95 -9.20 9.55 -9.70 10.25 -1.35 2.05 -1.05 4.35 0.90 6.30 2.90 2.90 5.10 2.40 10.25 -2.55 11.95 -11.40 27.90 -17.75 44.55 -17.85 l6.25 -0.05 23 -22.90 c17.45 -17.40 23.10 -22.80 23.60 -22.35 0.40 0.35 0.50 0.80 0.15 1.35 -0.25 0.45 -10.25 10.60 -22.25 22.55 l-21.80 21.75 3.75 0.55 c2.05 0.35 5.45 1.10 7.55 1.75 l3.80 1.10 5.35 -5.30 c2.95 -2.95 5.65 -5.35 5.95 -5.35 1.70 0 0.75 1.55 -3.90 6.25 -2.80 2.90 -5.05 5.30 -4.90 5.40 0.10 0.10 1.90 0.95 3.95 1.95 2.05 1.05 5.30 2.85 7.20 4.10 1.90 1.30 3.60 2.30 3.75 2.25 0.15 0 1 -0.85 1.85 -1.95 8.50 -10.65 26 -17.40 40.25 -15.50 11.75 1.55 21.20 6.20 29 14.35 7.50 7.75 11.55 16.55 13.15 28.55 l0.30 2.10 -5 0 -5 0 0 -2.05 c0 -2.70 -1.25 -7.40 -3 -11.25 -4.35 -9.55 -12.65 -17.05 -22.75 -20.50 -7.10 -2.40 -17.55 -2.25 -24.75 0.35 -5.50 2.05 -12.60 6.85 -15.60 10.65 l-1.35 1.70 10.25 10.15 c5.60 5.60 10.20 10.35 10.20 10.55 0 0.25 -71.45 0.40 -158.75 0.40 l-158.75 0 0 -66.65z"/>
  <path d="M418.25 470.90 c2.60 -15.75 17.70 -26.10 33.35 -22.85 7.15 1.45 15.15 7.55 18.35 13.90 1.60 3.10 3.05 7.85 3.05 9.90 l0 1.15 -27.55 0 -27.55 0 0.35 -2.10z"/>
  <path d="M421.45 427.60 c-0.85 -0.70 -1 -1.25 -0.75 -2.25 0.40 -1.75 2.15 -2.25 3.40 -0.95 2 1.95 -0.45 4.95 -2.65 3.20z"/>
  <path d="M432.05 427.55 c-1.20 -1.20 -0.85 -2.95 0.80 -3.70 1 -0.45 1.35 -0.35 2.30 0.55 1 1.05 1.05 1.20 0.35 2.50 -1 1.70 -2.15 1.95 -3.45 0.65z"/>
  <path d="M443.50 427.60 c-0.90 -0.70 -1.05 -1.25 -0.80 -2.25 0.40 -1.70 2.05 -2.20 3.35 -1.05 1.20 1.10 1.05 2.60 -0.35 3.55 -0.95 0.60 -1.20 0.55 -2.20 -0.25z"/>
  <path d="M454.30 427.70 c-0.45 -0.40 -0.80 -1.20 -0.80 -1.70 0 -0.90 1.20 -2.50 1.90 -2.50 0.80 0 2.60 1.60 2.60 2.30 0 0.80 -1.75 2.70 -2.45 2.70 -0.25 0 -0.85 -0.35 -1.25 -0.80z"/>
  <path d="M465.45 427.60 c-0.85 -0.70 -1 -1.25 -0.75 -2.25 0.40 -1.75 2.15 -2.25 3.40 -0.95 2 1.95 -0.45 4.95 -2.65 3.20z"/>
  <path d="M477 428.15 c-1.25 -0.30 -2.10 -2.05 -1.50 -3.15 1.20 -2.25 4 -1.55 4 1.05 0 1.45 -1.15 2.40 -2.50 2.10z"/>
  <path d="M487.50 427.60 c-0.90 -0.70 -1.05 -1.25 -0.80 -2.25 0.40 -1.70 2.05 -2.20 3.35 -1.05 1.20 1.10 1.05 2.60 -0.35 3.55 -0.95 0.60 -1.20 0.55 -2.20 -0.25z"/>
  <path d="M498.30 427.70 c-1.85 -1.85 -0.05 -4.90 2.15 -3.70 1.60 0.85 1.85 2.55 0.55 3.60 -1.35 1.10 -1.70 1.10 -2.70 0.10z"/>
  <path d="M421.10 416.40 c-0.85 -0.85 -0.75 -2.65 0.15 -3.40 1 -0.85 3.10 -0.25 3.50 1 0.70 2.20 -2.05 4 -3.65 2.40z"/>
  <path d="M431.80 415.90 c-1.60 -2.25 1.55 -4.45 3.45 -2.40 0.75 0.85 0.80 1.20 0.35 2.25 -0.75 1.60 -2.75 1.70 -3.80 0.15z"/>
  <path d="M443.10 416.40 c-1.60 -1.60 0.20 -4.35 2.40 -3.65 1.20 0.40 1.70 1.95 1 3.25 -0.60 1.10 -2.45 1.35 -3.40 0.40z"/>
  <path d="M454.10 416.40 c-1.35 -1.35 -0.35 -3.90 1.45 -3.90 1.05 0 2.45 1.30 2.45 2.25 0 1.75 -2.65 2.90 -3.90 1.65z"/>
  <path d="M465.10 416.40 c-0.85 -0.85 -0.75 -2.65 0.15 -3.40 1 -0.85 3.10 -0.25 3.50 1 0.70 2.20 -2.05 4 -3.65 2.40z"/>
  <path d="M475.85 416.15 c-0.65 -0.80 -0.70 -1.15 -0.20 -2.15 1.25 -2.50 4.10 -1.50 3.75 1.35 -0.10 1.10 -0.45 1.45 -1.45 1.55 -0.75 0.10 -1.60 -0.25 -2.10 -0.75z"/>
  <path d="M487.10 416.40 c-0.85 -0.85 -0.75 -2.65 0.15 -3.40 1 -0.85 3.10 -0.25 3.50 1 0.70 2.20 -2.05 4 -3.65 2.40z"/>
  <path d="M498.10 416.40 c-1.30 -1.30 -0.35 -3.90 1.40 -3.90 0.95 0 2.50 1.50 2.50 2.40 0 1.60 -2.70 2.70 -3.90 1.50z"/>
  <path d="M142.80 366.05 c-2.95 -3.05 -1.85 -8.30 1.95 -9.55 2.45 -0.80 4.45 -0.20 6.30 1.85 1.40 1.60 1.55 2.05 1.30 4.10 -0.35 3.20 -2.45 5.05 -5.75 5.05 -2 0 -2.65 -0.25 -3.80 -1.45z"/>
  <path d="M155.30 353.95 c-2.15 -1.85 -2.70 -4.05 -1.65 -6.60 1.50 -3.55 6.05 -4.45 9.10 -1.80 1.55 1.40 1.75 1.80 1.75 4.05 0 2.20 -0.20 2.70 -1.70 4.20 -2.30 2.30 -5 2.40 -7.50 0.15z"/>
  <path d="M0 273.75 l0 -11.75 1.25 -0.30 c3.65 -0.90 9.15 1.65 11.60 5.35 1.90 2.90 2.30 8.75 0.75 11.80 -2.10 4.10 -6.30 6.65 -10.90 6.65 l-2.70 0 0 -11.75z"/>
  <path d="M105.75 281.35 c-1.05 -0.60 -2.65 -2.10 -3.50 -3.25 -1.35 -2 -1.50 -2.55 -1.50 -6.10 0 -3.55 0.15 -4.10 1.50 -6.05 3.80 -5.40 12.25 -6.10 16.55 -1.35 4.10 4.45 3.95 11.25 -0.30 15.10 -2.60 2.35 -3.85 2.80 -7.65 2.80 -2.30 0 -3.65 -0.30 -5.10 -1.15z"/>
  <path d="M1290.95 210.75 c-2.70 -0.85 -5.70 -3.65 -7 -6.45 -2.80 -6.15 0.80 -14.35 7 -16.25 2.45 -0.70 6.15 -0.70 7.80 0.05 l1.25 0.55 0 10.90 c0 12.20 0.35 11.25 -4.15 11.70 -1.55 0.15 -3.50 -0.05 -4.90 -0.50z"/>
  <path d="M1297.55 168.50 c-2.85 -4.05 -5.85 -10.55 -7.15 -15.60 -0.90 -3.40 -1.15 -5.55 -1.15 -11.65 0 -8.10 0.95 -13.30 3.60 -19.25 1.40 -3.20 6.20 -11 6.75 -11 0.25 0 0.40 13.60 0.40 30.25 0 16.65 -0.10 30.25 -0.20 30.25 -0.10 0 -1.10 -1.35 -2.25 -3z"/>
  <path d="M1216.55 159.20 c-6.15 -1.65 -11.85 -6.50 -14.70 -12.55 -1.50 -3.25 -1.60 -3.70 -1.60 -9.40 0 -6 0 -6.05 1.95 -10 1.90 -3.95 2.75 -4.80 44.40 -46.45 24.45 -24.50 42.55 -43 42.75 -43.70 0.15 -0.65 0 -2.10 -0.30 -3.15 -0.75 -2.50 -2.95 -3.95 -6.05 -3.95 l-2.20 0 -29.80 29.70 c-16.35 16.30 -30.75 30.35 -32 31.15 -10.95 7.30 -24.50 9.15 -36.65 4.90 -11.60 -4.10 -21.30 -14.25 -24.80 -26 -3.10 -10.45 -2.20 -20.45 2.75 -30.25 2.45 -5 4.65 -7.45 21.35 -24.10 l15.45 -15.40 51.45 0 51.45 0 0 47.75 0 47.75 -1.40 0 c-2.15 0 -4.30 1.80 -16.25 13.85 l-10.95 11 0.75 2.20 c0.95 2.85 0.60 4.65 -1.25 6.20 -1.80 1.50 -5.05 1.70 -6.50 0.40 -0.90 -0.80 -1.60 -0.15 -15.05 13.20 -8.75 8.70 -14.90 14.45 -16.20 15.10 -5 2.50 -11.35 3.15 -16.60 1.75z"/>
  <path d="M1059 97.45 c-6.15 -0.70 -12.65 -4 -17.05 -8.80 -3.10 -3.30 -4.55 -5.70 -6.20 -10.15 -1.25 -3.30 -1.40 -4.45 -1.40 -9.50 0 -6.20 0.85 -9.80 3.50 -14.50 0.75 -1.30 9.15 -10.10 19.70 -20.75 19 -19.15 19.60 -19.90 18.70 -22.85 -0.90 -2.90 -4.45 -4.85 -7.05 -3.90 -0.80 0.30 -4.70 3.80 -8.70 7.70 -5.05 4.95 -8.25 7.70 -10.50 8.95 -10.35 5.70 -24.10 5.15 -33.30 -1.45 -2.50 -1.75 -22.20 -21.10 -22.20 -21.80 0 -0.20 39.95 -0.40 88.75 -0.40 48.80 0 88.75 0.15 88.75 0.40 0 0.20 -20.40 20.75 -45.35 45.70 -31.70 31.65 -46.30 45.90 -48.45 47.25 -5.40 3.45 -12.10 4.90 -19.20 4.10z"/>
  <path d="M1131.20 86.10 c-0.60 -0.50 -1.45 -1.65 -1.95 -2.60 -2.30 -4.40 3.20 -9.60 7.65 -7.30 2.15 1.10 3.10 2.70 3.10 5.20 0 1.85 -0.30 2.50 -1.70 3.90 -1.40 1.40 -2.05 1.70 -3.85 1.70 -1.35 -0.05 -2.60 -0.40 -3.25 -0.90z"/>
  <path d="M955.75 82.95 c-0.40 -0.60 0.50 -1.65 5.40 -6.35 1.85 -1.80 3.35 -3.45 3.35 -3.70 0 -0.20 -1 -1.75 -2.20 -3.40 -5.50 -7.45 -6.25 -17.70 -1.90 -26.50 1.75 -3.65 7.10 -8.95 10.65 -10.70 7.95 -3.85 16.50 -3.75 24 0.25 4.10 2.20 8.55 7.05 10.80 11.70 1.60 3.40 1.85 4.40 2.05 8.70 0.40 8.30 -1.40 13.40 -6.70 19.05 -5.55 5.85 -11.65 8.30 -19.65 7.85 -5.50 -0.25 -9.05 -1.40 -12.85 -4.10 l-2.45 -1.75 -4.75 4.75 c-2.60 2.60 -4.90 4.75 -5.10 4.75 -0.20 0 -0.50 -0.25 -0.65 -0.55z m35.55 -9.95 c4.20 -2.05 7.65 -5.45 9.75 -9.75 1.60 -3.30 1.70 -3.80 1.65 -8.50 0 -4.30 -0.20 -5.40 -1.30 -7.85 -0.75 -1.60 -1.95 -3.70 -2.70 -4.70 -2.10 -2.70 -6.50 -5.60 -10.35 -6.80 -13.75 -4.15 -27.80 8.40 -25.35 22.55 0.60 3.50 2.85 8.25 4.70 10 l1.10 1.05 3.35 -3.50 c3.10 -3.30 4.85 -4.30 4.85 -2.85 0 0.35 -1.45 2.10 -3.25 3.85 -1.80 1.75 -3.25 3.50 -3.25 3.80 0 0.80 5.55 3.65 8.10 4.20 3.85 0.80 9.15 0.20 12.70 -1.50z"/>
  <path d="M900.25 43 c-5.05 -1.10 -7.65 -2.05 -11.55 -4.25 -11.75 -6.55 -20 -18.20 -21.95 -30.95 -0.20 -1.25 -0.45 -1.75 -0.70 -1.35 -0.60 0.95 -1.05 -0.60 -1.05 -3.75 l0 -2.70 44.55 0 44.60 0 -0.35 4.10 c-0.60 7.20 -3.95 16.30 -8.10 21.95 -2.65 3.60 -9.25 9.65 -13 11.85 -9.40 5.60 -21.75 7.55 -32.45 5.10z"/>
 </g>
</svg>