<svg xmlns="http://www.w3.org/2000/svg" viewBox="0 0 412.09 469.45"><defs><style>.cls-1{fill:#ebebeb;}.cls-2{fill:#dbdbdb;}.cls-10,.cls-3{fill:none;}.cls-3{stroke:#c7c7c7;stroke-miterlimit:10;}.cls-4{fill:#c7c7c7;}.cls-5{fill:#a6a6a6;}.cls-6{fill:#263238;}.cls-7{fill:#eda84c;}.cls-8{opacity:0.1;}.cls-9{fill:#37474f;}.cls-11{fill:#fff;}.cls-12{fill:#ad6359;}.cls-13{fill:#455a64;}.cls-14{fill:#ff9abb;}</style></defs><g id="Layer_2" data-name="Layer 2"><g id="Character"><rect class="cls-1" x="14.77" y="188.75" width="26.48" height="11.19"/><rect class="cls-2" y="202.86" width="26.48" height="11.19"/><rect class="cls-1" x="29.54" y="202.86" width="26.48" height="11.19"/><rect class="cls-1" x="370.84" y="44.43" width="26.48" height="11.19"/><rect class="cls-2" x="385.61" y="58.54" width="26.48" height="11.19"/><rect class="cls-1" y="44.44" width="26.48" height="11.19"/><rect class="cls-2" x="307.14" y="322.47" width="26.48" height="11.19" transform="translate(640.76 656.13) rotate(180)"/><rect class="cls-1" x="321.91" y="308.36" width="26.48" height="11.19" transform="translate(670.3 627.91) rotate(180)"/><line class="cls-3" x1="367.66" y1="133.8" x2="367.66"/><polygon class="cls-1" points="326.26 173.71 329.59 181.03 405.74 181.03 409.06 173.71 376.64 151.27 358.68 151.27 326.26 173.71"/><polygon class="cls-2" points="356.43 129.65 358.68 151.27 376.64 151.27 378.89 129.65 356.43 129.65"/><polygon class="cls-2" points="326.26 173.71 329.59 181.03 405.74 181.03 409.06 173.71 326.26 173.71"/><line class="cls-3" x1="302.67" y1="55.23" x2="302.67"/><polygon class="cls-1" points="261.27 95.14 264.6 102.46 340.75 102.46 344.07 95.14 311.65 72.7 293.69 72.7 261.27 95.14"/><polygon class="cls-2" points="291.44 51.08 293.69 72.7 311.65 72.7 313.9 51.08 291.44 51.08"/><polygon class="cls-2" points="261.28 95.14 264.61 102.46 340.76 102.46 344.08 95.14 261.28 95.14"/><rect class="cls-1" x="14.68" y="111.91" width="111.82" height="6.64"/><rect class="cls-1" x="23.17" y="118.55" width="6.64" height="21.96"/><rect class="cls-2" x="23.17" y="118.55" width="6.64" height="6.79"/><rect class="cls-1" x="111.38" y="118.55" width="6.64" height="21.96"/><rect class="cls-2" x="111.38" y="118.55" width="6.64" height="6.79"/><rect class="cls-4" x="27.12" y="85.42" width="42.32" height="10.66" transform="translate(139.02 42.48) rotate(90)"/><rect class="cls-2" x="45.95" y="64.32" width="4.65" height="10.66" transform="translate(117.93 21.38) rotate(90)"/><rect class="cls-2" x="47.41" y="73.47" width="1.73" height="10.66" transform="translate(127.07 30.53) rotate(90)"/><rect class="cls-2" x="46.61" y="98.04" width="4.65" height="11.98" transform="translate(152.97 55.09) rotate(90)"/><rect class="cls-2" x="32.64" y="83.5" width="49.36" height="7.45" transform="translate(144.55 29.9) rotate(90)"/><rect class="cls-1" x="47.8" y="74.44" width="18.99" height="4.47" transform="translate(133.97 19.39) rotate(90)"/><rect class="cls-4" x="69.18" y="88.19" width="49.36" height="7.45" transform="translate(91.72 -39.44) rotate(44.67)"/><rect class="cls-2" x="86.95" y="92.2" width="18.99" height="4.47" transform="translate(94.23 -40.53) rotate(44.67)"/><rect class="cls-5" x="48.62" y="86.84" width="37.49" height="12.65" transform="translate(160.53 25.8) rotate(90)"/><rect class="cls-4" x="65.62" y="99.87" width="3.49" height="12.65" transform="translate(173.56 38.83) rotate(90)"/><rect class="cls-4" x="66.69" y="95.15" width="1.36" height="12.65" transform="translate(168.84 34.11) rotate(90)"/><rect class="cls-5" x="20.96" y="89.93" width="35.24" height="8.74" transform="translate(132.87 55.72) rotate(90)"/><rect class="cls-4" x="36.93" y="102.17" width="3.28" height="8.74" transform="translate(145.11 67.96) rotate(90)"/><rect class="cls-4" x="36.93" y="81.22" width="3.28" height="8.74" transform="translate(124.16 47.01) rotate(90)"/><rect class="cls-4" x="37.94" y="85.74" width="1.27" height="8.74" transform="translate(128.69 51.53) rotate(90)"/><path class="cls-1" d="M404.36,449c0,11.28-88.79,20.42-198.32,20.42S7.73,460.31,7.73,449,96.52,428.61,206,428.61,404.36,437.75,404.36,449Z"/><polygon class="cls-6" points="3.03 406.44 53.78 406.2 104.54 406.11 206.04 405.95 307.55 406.11 358.31 406.2 409.06 406.44 358.31 406.69 307.55 406.78 206.04 406.94 104.54 406.78 53.78 406.69 3.03 406.44"/><path class="cls-7" d="M362.09,242.76s-23-3.22-17.61-30.95C344.48,211.81,370.15,217.57,362.09,242.76Z"/><path class="cls-8" d="M362.09,242.76s-23-3.22-17.61-30.95C344.48,211.81,370.15,217.57,362.09,242.76Z"/><path class="cls-6" d="M360.93,237c-.45-1.4-1-2.78-1.57-4.14l-.06-.52-.09-1.15c-.07-.82-.12-1.65-.17-2.48-.1-1.66-.2-3.32-.23-5a.07.07,0,0,0-.14,0c0,1.66,0,3.32,0,5,0,.83.08,1.66.13,2.48,0,.19,0,.37,0,.56a48.47,48.47,0,0,0-4.61-7.88,36.65,36.65,0,0,0-2.51-3.19c-.91-1-1.88-2-2.81-3.08-.06-.07-.16,0-.09.1a40.43,40.43,0,0,1,4.42,5.89c.7,1.05,1.36,2.14,2,3.24l-.22-.08-.81-.33-1.88-.71c-1.23-.46-2.47-.91-3.7-1.38-.07,0-.12.1,0,.13,1.22.49,2.43,1,3.64,1.52l1.78.77.9.37a2.75,2.75,0,0,0,.61.21c.46.84.92,1.67,1.34,2.52a59.19,59.19,0,0,1,2.81,6.62l.17.48A12.58,12.58,0,0,0,358,236c-.79-.37-1.58-.72-2.38-1.08-1.61-.74-3.21-1.49-4.75-2.37a.07.07,0,0,0-.07.13c1.58.86,3.13,1.78,4.71,2.63.79.43,1.58.85,2.39,1.24a7.89,7.89,0,0,0,2.16.87,27.5,27.5,0,0,1,1.51,6.51c.25,3.14.22,6.3.3,9.45,0,0,.08,0,.08,0,.23-2.85.36-5.73.37-8.59A25.16,25.16,0,0,0,360.93,237Z"/><path class="cls-6" d="M357.39,220.66a27.54,27.54,0,0,0-.23,4.89s.07,0,.07,0c.09-1.63.11-3.24.29-4.86C357.53,220.6,357.4,220.57,357.39,220.66Z"/><path class="cls-6" d="M350.82,222.05a18.08,18.08,0,0,1-3-1.46c-.07-.05-.14.08-.06.13a11,11,0,0,0,3,1.42C350.84,222.16,350.87,222.07,350.82,222.05Z"/><path class="cls-6" d="M362.82,286.79c0-2.54-.07-5.08-.1-7.61,0-8.44-.11-16.87-.26-25.3q-.18-10-.47-20.08s0-.06-.06-.08l0-5.49s0-.07-.11-.07-.11,0-.11.08l0,5.49a.09.09,0,0,0,0,.08c-.34,11.91-.64,23.83-.71,35.74,0,2.42,0,4.85,0,7.27q-.12,11.65-.09,23.31c0,1.23,0,2.47,0,3.71,0,7.1.07,14.21.07,21.32,0,.38.43.57.88.59s1.06-.19,1.06-.62c0-7.84.06-15.68.06-23.52C362.84,296.67,362.86,291.73,362.82,286.79Z"/><path class="cls-7" d="M353.23,279.08s-11.06-8.19-21.54-2.66-12.14,26.86-12.14,26.86,15.4,2.21,25.1-7C354,287.36,353.23,279.08,353.23,279.08Z"/><path class="cls-6" d="M356.24,279.58a13.26,13.26,0,0,0-6.4-.83,8.82,8.82,0,0,0-1.36-.13l-1.56-.12-3.22-.23c-2.18-.16-4.37-.29-6.54-.51-.08,0-.09.12,0,.13,2.16.28,4.3.59,6.46.8,1.11.12,2.22.23,3.34.31l.81.08c-.34.07-.66.15-1,.24a26.12,26.12,0,0,0-5,2c-.87.15-1.74.4-2.59.6-1.37.32-2.73.67-4.09,1-2.68.7-5.34,1.49-8,2.27-.09,0-.05.15,0,.13,2.66-.65,5.33-1.25,8-1.88l3.89-.93c.33-.09.67-.16,1-.24a32.32,32.32,0,0,0-7.85,6.83,42.49,42.49,0,0,0-5.46,8.61c0,.08.07.16.12.08a41.59,41.59,0,0,1,6.6-8.67c-.05.14-.09.29-.14.44-.21.65-.41,1.3-.62,1.95-.41,1.3-.82,2.6-1.21,3.91,0,.09.11.11.14,0,.46-1.26.91-2.53,1.35-3.8l.66-1.86.33-1,.1-.3a39.78,39.78,0,0,1,3.92-3.34,29.72,29.72,0,0,1,5.87-3.36c0,.19-.07.38-.11.56l-.33,1.51c-.21,1.05-.42,2.1-.62,3.15-.42,2.14-.67,4.3-1.07,6.44,0,.09.11.12.13,0,.5-2.15,1.14-4.27,1.61-6.43.24-1.08.49-2.15.71-3.23.11-.51.21-1,.31-1.52a7.94,7.94,0,0,0,.15-.85l.6-.24c2.9-1.08,6.11-1.86,9.2-1.26a9,9,0,0,1,6.65,5.33c.1.24.48.09.42-.16A8.54,8.54,0,0,0,356.24,279.58Z"/><path class="cls-6" d="M339.32,288.69l-.93,4.2a30.06,30.06,0,0,0-.77,4.09s.07,0,.09,0a30.32,30.32,0,0,0,.93-4.12c.28-1.38.55-2.76.82-4.14C339.47,288.64,339.34,288.6,339.32,288.69Z"/><path class="cls-6" d="M328.63,292.25c-1.41.71-2.77,1.53-4.24,2.11a.07.07,0,1,0,.06.13,44.19,44.19,0,0,0,4.21-2.19S328.67,292.23,328.63,292.25Z"/><path class="cls-7" d="M355.71,264s-13.51.86-19.79-8-4.87-21.63-4.87-21.63,14.19,1.73,19.82,8.12S355.71,264,355.71,264Z"/><path class="cls-6" d="M362.05,277.37c-.47-1.45-1.05-2.87-1.59-4.29s-1.09-2.72-1.68-4.05a87.48,87.48,0,0,0-4-8c-1-1.64-2-3.23-3-4.8,0-.24-.07-.48-.1-.72-.07-.42-.13-.84-.19-1.26-.14-.85-.29-1.7-.43-2.56-.31-1.86-.69-3.71-1-5.58,0-.09-.15-.09-.14,0,.27,1.84.46,3.7.71,5.54.13.91.25,1.82.39,2.72l.15,1a97.54,97.54,0,0,0-6.68-8.67c-.32-.37-.66-.73-1-1.1,0-.1-.08-.2-.12-.31s-.2-.51-.29-.77c-.2-.54-.4-1.07-.59-1.61-.38-1.06-.72-2.13-1-3.21,0-.09-.15-.05-.13,0,.27,1.11.56,2.21.88,3.31.16.53.33,1.05.52,1.57,0,.08.07.17.1.26-1.73-1.88-3.53-3.7-5.35-5.49-.06-.06-.16,0-.1.1a97.94,97.94,0,0,1,9.58,11.72c-.33-.1-.67-.18-1-.25-1-.2-2.08-.35-3.13-.48-2.2-.28-4.4-.56-6.59-.91a.07.07,0,0,0,0,.14c2.09.41,4.16.88,6.24,1.36,1,.23,2,.42,3,.61a20.22,20.22,0,0,1,2.37.68c.22.31.45.62.66.93,1,1.45,1.95,2.92,2.88,4.4l-1.38-.27c-1-.2-2.09-.39-3.14-.56-2.06-.34-4.12-.7-6.16-1.16-.08,0-.12.11,0,.14,2.06.48,4.11,1.05,6.16,1.59,1,.27,2,.51,3,.73l1.5.32a3.58,3.58,0,0,0,.61.11q3,4.8,5.54,9.81c.75,1.47,1.47,3,2.18,4.45s1.34,3.1,2,4.66C361.67,277.84,362.16,277.71,362.05,277.37Z"/><path class="cls-6" d="M348.23,246.33c-.26-1.29-.53-2.58-.82-3.86,0-.09-.15-.05-.13,0,.25,1.27.5,2.54.73,3.81a37.18,37.18,0,0,0,.76,3.78s0,0,0,0A28,28,0,0,0,348.23,246.33Z"/><path class="cls-6" d="M340.35,246c-.63-.31-1.29-.56-1.94-.82l-1-.4-.52-.21a2.24,2.24,0,0,1-.57-.25c-.1-.07-.17.11-.07.12a3,3,0,0,1,.58.24l.51.23,1,.44a20.09,20.09,0,0,0,2,.79A.08.08,0,0,0,340.35,246Z"/><path class="cls-7" d="M369.54,253.42s8.17-15.27,20.61-17.63,20,10.43,20,10.43-9.07,11.58-20.48,13.6S369.54,253.42,369.54,253.42Z"/><path class="cls-6" d="M398.48,242.63a33.55,33.55,0,0,0-9.75.12c.18-.11.37-.21.55-.3L392,241a64.25,64.25,0,0,1,5.84-2.85.07.07,0,1,0-.06-.13c-1.94.91-4,1.67-5.91,2.56-1,.45-1.94.92-2.89,1.42-.61.33-1.29.63-1.89,1a34.35,34.35,0,0,0-7.91,2.63l1.56-1.69c1.16-1.27,2.3-2.6,3.57-3.76.07-.06,0-.16-.1-.1-1.3,1.18-2.67,2.28-3.94,3.51-.61.59-1.2,1.21-1.77,1.85-.28.31-.57.64-.84,1A32.79,32.79,0,0,0,361,269c0,.09.11.14.13,0a37.65,37.65,0,0,1,9.14-15.47A35.93,35.93,0,0,1,387,243.92a36.45,36.45,0,0,1,11.49-1A.13.13,0,0,0,398.48,242.63Z"/><path class="cls-8" d="M410.2,246.22s-9.08,11.59-20.49,13.6c-8.71,1.55-15.87-3-18.78-5.23l-.62-1s5.88-5,17-7.82S410.2,246.22,410.2,246.22Z"/><path class="cls-6" d="M391.26,237.19A29.88,29.88,0,0,0,388.5,239a17.19,17.19,0,0,0-2.4,2.19.07.07,0,0,0,.1.11c.83-.72,1.66-1.44,2.52-2.12a27,27,0,0,1,2.61-1.88A.07.07,0,1,0,391.26,237.19Z"/><path class="cls-6" d="M398.08,239.77l-1.39.55-1.38.58c-.1,0-.06.2.05.16l1.38-.57c.47-.18.92-.4,1.38-.58C398.21,239.87,398.17,239.74,398.08,239.77Z"/><path class="cls-7" d="M367.9,272.64s2.19,15.14,13.58,20.44,25.27,0,25.27,0S401.29,260.31,367.9,272.64Z"/><path class="cls-6" d="M398.91,283.23c-1.05-.12-2.1-.3-3.14-.49l-1.53-.29-.8-.16c-.31-.28-.61-.58-.92-.85a46,46,0,0,0-7-5.05,40,40,0,0,0-4.17-2.15h.21l3.75.17c2.5.11,5,.17,7.5.33a.07.07,0,0,0,0-.14c-2.51-.17-5-.45-7.51-.66l-3.64-.33-1.88-.16-.48,0c-.65-.24-1.3-.47-2-.68a17.68,17.68,0,0,0-9.64-.53c-2.87.73-5.73,2.61-6.47,5.63,0,.11.14.18.18.07,1.07-2.52,3.87-3.79,6.4-4.32a15.41,15.41,0,0,1,5.16-.1,12.18,12.18,0,0,0,.57,2.29l.95,3.2c.65,2.13,1.36,4.23,2,6.36a.07.07,0,1,0,.13,0c-.53-2.12-1-4.27-1.48-6.4l-.78-3.13a16.31,16.31,0,0,0-.57-2.15,26.35,26.35,0,0,1,2.95.69,46.41,46.41,0,0,1,5.17,1.89c.16,1.08.4,2.15.65,3.22.31,1.34.66,2.66,1.08,4a.07.07,0,0,0,.13,0c0-.08,0-.17,0-.25h0c-.26-1.24-.53-2.48-.79-3.71-.21-1-.41-2-.62-3,1.41.64,2.8,1.33,4.15,2.1,0,.31.1.63.15.91.08.52.17,1,.27,1.55.21,1.17.44,2.34.72,3.49a55.45,55.45,0,0,0,2,6.59.1.1,0,0,0,0,.09l.07.07c.05.06.13,0,.11-.07-.52-2.24-1.12-4.47-1.62-6.72-.24-1.13-.49-2.25-.72-3.38-.11-.56-.21-1.13-.32-1.7,0-.15,0-.33-.08-.5a46.29,46.29,0,0,1,4.44,3,47.36,47.36,0,0,1,6.78,6.19c.09.09.25,0,.17-.13-.87-1.14-1.73-2.26-2.71-3.31-.58-.62-1.17-1.21-1.78-1.79l.19,0c.54.09,1.07.17,1.61.24,1.05.14,2.11.25,3.16.37C399,283.38,399,283.24,398.91,283.23Z"/><path class="cls-6" d="M390.9,288.37h0l-.06-.39c0-.17-.12-.33-.14-.49h0c-.24-1-.44-2-.62-3.05,0-.08-.13-.05-.12,0a12.48,12.48,0,0,0,.86,3.95s.09,0,.08,0Z"/><path class="cls-6" d="M381.37,288.12a.07.07,0,0,0-.07-.06c-.32-1.34-.63-2.68-.9-4-.15-.71-.3-1.41-.43-2.13-.08-.38-.15-.76-.21-1.15a3.29,3.29,0,0,0-.25-1,.07.07,0,0,0-.13,0,6.78,6.78,0,0,0,.29,2c.14.74.28,1.48.44,2.21.33,1.5.71,3,1.13,4.46a.08.08,0,0,0,.15,0C381.38,288.34,381.38,288.23,381.37,288.12Z"/><path class="cls-6" d="M397.87,278.87c-2.08-.29-4.16-.59-6.25-.84-.08,0-.12.12,0,.13,2.08.31,4.16.57,6.24.84C397.92,279,398,278.88,397.87,278.87Z"/><path class="cls-7" d="M362.07,237.11s-7-30.57,25.88-43C388,194.16,397.06,234.41,362.07,237.11Z"/><path class="cls-6" d="M369.16,219.77l.35-.21c.63-.34,1.24-.69,1.86-1l3.81-2.13c2.51-1.4,5-2.86,7.51-4.23.08,0,0-.17-.08-.12-2.52,1.37-5.1,2.66-7.64,4l-3.77,2-1.54.82c1.1-2.08,2.27-4.12,3.56-6.08,1.71-2.62,3.59-5.12,5.55-7.56a.11.11,0,0,0-.16-.15,51.92,51.92,0,0,0-7.59,9.31c0-.11,0-.21,0-.32q0-1.14.06-2.28c0-1.49,0-3,0-4.48,0-.09-.14-.08-.14,0-.06,1.46-.24,2.93-.32,4.4,0,.73-.08,1.46-.1,2.2,0,.39,0,.84,0,1.28-.68,1.08-1.33,2.17-1.94,3.28a55.13,55.13,0,0,0-2.94,6.15c0-.76-.08-1.52-.12-2.28-.1-1.68-.31-3.34-.38-5,0-.09-.14-.08-.14,0,0,1.67,0,3.35,0,5,0,.84.05,1.67.11,2.51l.06.93a55,55,0,0,0-2.48,8.41,87,87,0,0,0-1.23,9.23s0,0,0,0a49.18,49.18,0,0,1,1.74-8.23c.41-1.45.83-2.88,1.3-4.31,1.36-.64,2.67-1.44,4-2.18s2.75-1.5,4.13-2.25c2.74-1.5,5.47-3,8.3-4.36.08,0,0-.16-.07-.12-2.87,1.29-5.75,2.53-8.57,3.94-1.4.71-2.77,1.46-4.14,2.23-1.14.64-2.31,1.28-3.4,2,.32-.95.65-1.9,1-2.84C366.78,224.76,367.91,222.23,369.16,219.77Z"/><path class="cls-6" d="M366.39,212.78c0-.09-.14-.08-.14,0,.12,1.74.18,3.48.36,5.22,0,.1.16.1.16,0C366.71,216.26,366.52,214.53,366.39,212.78Z"/><path class="cls-6" d="M382.14,218.62c-2.05.83-4.13,1.62-6.17,2.47-.06,0,0,.12,0,.1,2.08-.78,4.13-1.63,6.19-2.43C382.27,218.72,382.23,218.59,382.14,218.62Z"/><path class="cls-6" d="M385.26,204.52a53.67,53.67,0,0,0-5.84,3.13c-.09.06,0,.21.09.15,1.91-1.11,3.85-2.18,5.83-3.16C385.42,204.6,385.35,204.48,385.26,204.52Z"/><rect class="cls-9" x="337.39" y="303.23" width="47.38" height="49.94"/><rect class="cls-6" x="334.13" y="320.9" width="2.42" height="85.54"/><rect class="cls-6" x="385.35" y="320.9" width="2.42" height="85.54"/><rect class="cls-6" x="361.03" y="320.9" width="2.42" height="85.54"/><rect class="cls-6" x="335.34" y="349.97" width="51.22" height="6.91"/><path class="cls-6" d="M287.62,54.55H124.45a16.66,16.66,0,0,0-16.51,16.81V407.25a16.68,16.68,0,0,0,16.51,16.81H287.62a16.69,16.69,0,0,0,16.53-16.81V71.36A16.67,16.67,0,0,0,287.62,54.55Zm6.2,342.31c0,8.84-6.62,16-14.79,16h-146c-8.19,0-14.81-7.16-14.81-16V84.09c0-18,6.62-18.89,14.81-18.89H162.3c1.7,0,3.09,1.93,3.09,4.32v1c0,5.61,3.07,5.62,6.84,5.62h67.62c3.8,0,6.85,0,6.85-5.62v-1c0-2.39,1.37-4.32,3.1-4.32H279c8.17,0,14.79,2.39,14.79,18.89Z"/><line class="cls-10" x1="118.26" y1="377.04" x2="117.71" y2="377.04"/><path class="cls-11" d="M293.83,84.36V397.14c0,8.84-6.62,16-14.79,16h-146c-8.19,0-14.81-7.15-14.81-16V84.36c0-18,6.62-18.88,14.81-18.88h29.24c1.7,0,3.09,1.93,3.09,4.32v1c0,5.61,3.07,5.63,6.83,5.63h67.62c3.81,0,6.86,0,6.86-5.63v-1c0-2.39,1.37-4.32,3.1-4.32H279C287.21,65.48,293.83,67.87,293.83,84.36Z"/><path class="cls-7" d="M293.83,84.37v28.37H118.26V84.37c0-18,6.62-18.89,14.81-18.89h29.24c1.7,0,3.09,1.93,3.09,4.32v1c0,5.6,3.07,5.62,6.83,5.62h67.62c3.81,0,6.86,0,6.86-5.62v-1c0-2.39,1.37-4.32,3.1-4.32H279C287.21,65.48,293.83,67.87,293.83,84.37Z"/><path class="cls-11" d="M215.26,69.18H196.82A1.14,1.14,0,0,1,195.68,68h0a1.14,1.14,0,0,1,1.14-1.14h18.44A1.14,1.14,0,0,1,216.4,68h0A1.14,1.14,0,0,1,215.26,69.18Z"/><g id="u5Zjqx"><path class="cls-11" d="M157.25,72.23c-.09.09-.19.18-.28.28l-.16.16a3.77,3.77,0,0,0-2.72-1.13,3.81,3.81,0,0,0-2.73,1.13l-.15-.16c-.09-.09-.18-.19-.28-.28h0l0,0,.36-.31a4,4,0,0,1,.83-.53,4.25,4.25,0,0,1,1.09-.37l.55-.07h.48l.37,0a4.37,4.37,0,0,1,1,.24,3.81,3.81,0,0,1,.68.32A4.71,4.71,0,0,1,157,72l.29.27Z"/><path class="cls-11" d="M152.26,73.56l-.45-.45a3.22,3.22,0,0,1,4.55,0l-.45.44a2.58,2.58,0,0,0-3.65,0Z"/><path class="cls-11" d="M155.47,74l-.45.44a1.33,1.33,0,0,0-1.87,0l-.44-.45A1.94,1.94,0,0,1,155.47,74Z"/><path class="cls-11" d="M154.49,74.85a.4.4,0,1,1-.4-.4A.4.4,0,0,1,154.49,74.85Z"/></g><path class="cls-11" d="M129.7,73.08a1.17,1.17,0,1,1,1.17,1.16A1.16,1.16,0,0,1,129.7,73.08Z"/><path class="cls-11" d="M133.37,73.08a1.17,1.17,0,1,1,1.16,1.16A1.16,1.16,0,0,1,133.37,73.08Z"/><path class="cls-11" d="M137,73.08a1.17,1.17,0,1,1,1.17,1.16A1.16,1.16,0,0,1,137,73.08Z"/><path class="cls-11" d="M140.7,73.08a1.17,1.17,0,1,1,1.16,1.16A1.16,1.16,0,0,1,140.7,73.08Z"/><path class="cls-11" d="M144.36,73.08a1.17,1.17,0,1,1,1.17,1.16A1.16,1.16,0,0,1,144.36,73.08Z"/><path class="cls-11" d="M280.65,75.62h-9.47V71.23h9.47Zm-9-.48h8.51V71.71h-8.51Z"/><rect class="cls-11" x="271.96" y="71.98" width="6.11" height="2.9"/><rect class="cls-11" x="280.66" y="72.25" width="0.84" height="2.35"/><polygon class="cls-11" points="134.89 101.89 129.7 97.03 134.89 92.17 135.7 93.03 131.42 97.03 135.7 101.03 134.89 101.89"/><path class="cls-11" d="M277.9,102.24h-3.49V101a.27.27,0,0,0-.16-.24l-.39-.23a.28.28,0,0,0-.29,0l-1.06.61-1.74-3,1.05-.61a.26.26,0,0,0,.13-.26v-.44a.28.28,0,0,0-.13-.27l-1.05-.6,1.74-3,1.06.61a.28.28,0,0,0,.29,0,3.61,3.61,0,0,1,.39-.22.28.28,0,0,0,.16-.25V91.82h3.49V93a.27.27,0,0,0,.16.25l.39.22a.28.28,0,0,0,.29,0l1.05-.61,1.75,3-1.06.61a.3.3,0,0,0-.13.26,1.62,1.62,0,0,1,0,.22,1.7,1.7,0,0,1,0,.22.3.3,0,0,0,.13.26l1.06.61-1.75,3-1.05-.61a.28.28,0,0,0-.29,0l-.39.23a.27.27,0,0,0-.16.24Zm-2.74-.75h2V101a1,1,0,0,1,.57-.91l.32-.18a1,1,0,0,1,1.07,0l.41.23,1-1.73-.41-.23a1,1,0,0,1-.51-1v-.37a1,1,0,0,1,.51-.94l.41-.24-1-1.73-.4.24a1,1,0,0,1-1.08,0,2,2,0,0,0-.32-.18,1,1,0,0,1-.57-.92v-.46h-2V93a1,1,0,0,1-.57.92,2,2,0,0,0-.32.18,1,1,0,0,1-1.08,0l-.4-.24-1,1.73.41.24a1,1,0,0,1,.5.95v.37a1,1,0,0,1-.5.94l-.41.23,1,1.73.4-.23a1,1,0,0,1,1.08,0,3.37,3.37,0,0,0,.32.19,1,1,0,0,1,.57.91Zm1-1.84A2.63,2.63,0,1,1,278.78,97,2.63,2.63,0,0,1,276.15,99.65Zm0-4.5A1.88,1.88,0,1,0,278,97,1.88,1.88,0,0,0,276.15,95.15Z"/><rect class="cls-1" x="143.4" y="330.64" width="18.26" height="18.26"/><rect class="cls-1" x="170.08" y="330.64" width="18.26" height="18.26"/><rect class="cls-1" x="196.77" y="330.64" width="18.26" height="18.26"/><rect class="cls-1" x="223.45" y="330.64" width="18.26" height="18.26"/><rect class="cls-1" x="250.13" y="330.64" width="18.26" height="18.26"/><rect class="cls-1" x="142.84" y="358.52" width="124.98" height="1.97"/><rect class="cls-1" x="142.84" y="363.72" width="124.98" height="1.97"/><rect class="cls-1" x="142.84" y="368.93" width="124.98" height="1.97"/><rect class="cls-1" x="142.84" y="374.13" width="58.02" height="1.97"/><path class="cls-6" d="M324.05,121.6a18.3,18.3,0,0,1,0-8.54,16.43,16.43,0,0,1,.49,4.27A16.89,16.89,0,0,1,324.05,121.6Z"/><path class="cls-6" d="M315.36,124.1a18.63,18.63,0,0,1-4.26-7.39,15.94,15.94,0,0,1,2.56,3.44A16.37,16.37,0,0,1,315.36,124.1Z"/><path class="cls-6" d="M309.09,130.61a16.13,16.13,0,0,1-3.94-1.7,16.38,16.38,0,0,1-3.45-2.57,16.37,16.37,0,0,1,3.95,1.7A17,17,0,0,1,309.09,130.61Z"/><path class="cls-6" d="M306.91,139.39a16.76,16.76,0,0,1-4.26.5,16.36,16.36,0,0,1-4.27-.51,16.38,16.38,0,0,1,4.27-.49A16.76,16.76,0,0,1,306.91,139.39Z"/><path class="cls-6" d="M309.41,148.08a16.68,16.68,0,0,1-3.44,2.57,16.34,16.34,0,0,1-4,1.69,18.63,18.63,0,0,1,7.39-4.26Z"/><path class="cls-6" d="M315.93,154.36a16.72,16.72,0,0,1-1.71,3.94,16,16,0,0,1-2.57,3.44,16.32,16.32,0,0,1,1.71-3.94A16,16,0,0,1,315.93,154.36Z"/><path class="cls-6" d="M324.7,156.53a16.89,16.89,0,0,1,.5,4.27,16.41,16.41,0,0,1-.51,4.27,16.38,16.38,0,0,1-.49-4.27A16,16,0,0,1,324.7,156.53Z"/><path class="cls-6" d="M333.39,154a16.34,16.34,0,0,1,2.56,3.45,16,16,0,0,1,1.69,4,17,17,0,0,1-2.56-3.45A16.75,16.75,0,0,1,333.39,154Z"/><path class="cls-6" d="M339.66,147.52a16.3,16.3,0,0,1,3.94,1.7,16.68,16.68,0,0,1,3.44,2.57,16.3,16.3,0,0,1-3.94-1.7A16.68,16.68,0,0,1,339.66,147.52Z"/><path class="cls-6" d="M341.84,138.74a16.76,16.76,0,0,1,4.26-.5,16.46,16.46,0,0,1,4.27.51,16.43,16.43,0,0,1-4.27.49A16.76,16.76,0,0,1,341.84,138.74Z"/><path class="cls-6" d="M339.33,130.05a16.59,16.59,0,0,1,3.45-2.56,16.3,16.3,0,0,1,3.94-1.7,18.44,18.44,0,0,1-7.39,4.26Z"/><path class="cls-6" d="M332.82,123.77a18.68,18.68,0,0,1,4.27-7.38,15.91,15.91,0,0,1-1.7,3.94A16.33,16.33,0,0,1,332.82,123.77Z"/><rect class="cls-7" x="154.38" y="139.07" width="172.46" height="124.7"/><polygon class="cls-7" points="171.88 263.77 171.88 297.22 205.44 263.67 171.88 263.77"/><polygon class="cls-6" points="240.6 152.49 195.65 230.36 285.56 230.36 240.6 152.49"/><polygon class="cls-11" points="240.6 163.56 205.41 224.52 275.8 224.52 240.6 163.56"/><polygon class="cls-6" points="237.04 181.2 244.17 181.2 243.69 207.48 237.52 207.48 237.04 181.2"/><rect class="cls-6" x="237.52" y="210.77" width="6.17" height="6.17"/><path class="cls-6" d="M215.9,237.6h2.55l4.48,12.27H220l-.95-2.75h-3.82l-.93,2.75h-2.91Zm2.71,7.57-1.43-4.33-1.47,4.33Z"/><path class="cls-6" d="M224.14,249.87V237.6H227v9.78h5.95v2.49Z"/><path class="cls-6" d="M242.87,247.38v2.49h-8.62V237.6h8.46v2.49h-5.63v2.39h4.84v2.29h-4.84v2.61Z"/><path class="cls-6" d="M244.6,249.87V237.6h5.53a3.44,3.44,0,0,1,1.59.37,4.15,4.15,0,0,1,1.27.95,4.29,4.29,0,0,1,.84,1.33,4,4,0,0,1,.31,1.5,4.42,4.42,0,0,1-.14,1.1,4.77,4.77,0,0,1-.4,1,3.71,3.71,0,0,1-1.47,1.47l2.7,4.56h-3.2l-2.35-4h-1.85v4Zm2.83-6.43H250a1.06,1.06,0,0,0,.87-.47,2,2,0,0,0,.36-1.22,1.7,1.7,0,0,0-.42-1.21,1.19,1.19,0,0,0-.89-.45h-2.51Z"/><path class="cls-6" d="M265.33,240.09H261.6v9.78h-2.83v-9.78H255V237.6h10.31Z"/><path class="cls-6" d="M267,245v-7.52h2.77V245Zm0,4.87V247h2.77v2.87Z"/><path class="cls-11" d="M18.44,152.49a24.83,24.83,0,0,0,39.64,19.94l12.17,3.11-5.06-11.33a24.85,24.85,0,1,0-46.75-11.72Z"/><path class="cls-6" d="M18.44,152.49a25,25,0,0,0,3.75,13,28.57,28.57,0,0,0,2,2.78,26.34,26.34,0,0,0,2.39,2.45,23,23,0,0,0,5.62,3.84,24.46,24.46,0,0,0,6.45,2.14,23.92,23.92,0,0,0,3.38.36A21.32,21.32,0,0,0,45.4,177a24.45,24.45,0,0,0,12.47-4.86l.13-.1.17,0,12.19,3-.51.6-5.1-11.31-.1-.22.11-.21a24.77,24.77,0,0,0,2.87-10.58,24.47,24.47,0,0,0-2-10.78A25.61,25.61,0,0,0,59,133.78a24.4,24.4,0,0,0-9.79-5.1,24.77,24.77,0,0,0-11.07-.32,24.66,24.66,0,0,0-19.74,24.13Zm0,0A25,25,0,0,1,28,132.86a25.09,25.09,0,0,1,37.64,31.58l0-.43,5,11.35.37.84-.87-.23L58,172.78l.3-.06a25.15,25.15,0,0,1-12.86,4.76,22.08,22.08,0,0,1-3.45,0,24.93,24.93,0,0,1-15.53-6.65,27.88,27.88,0,0,1-2.38-2.48,30.16,30.16,0,0,1-2-2.81A25.05,25.05,0,0,1,18.44,152.49Z"/><polygon class="cls-7" points="39.96 137.51 45.78 137.51 45.38 158.93 40.35 158.93 39.96 137.51"/><rect class="cls-7" x="40.36" y="161.61" width="5.03" height="5.03"/><polygon class="cls-4" points="111.21 341.08 113.59 355.37 129.73 442.51 132.33 442.51 120.59 355.37 118.86 341.08 111.21 341.08"/><polygon class="cls-5" points="118.86 341.08 111.21 341.08 113.59 355.37 120.59 355.37 118.86 341.08"/><polygon class="cls-4" points="60.53 442.51 63.13 442.51 79.27 355.37 81.65 341.08 74 341.08 72.27 355.37 60.53 442.51"/><polygon class="cls-5" points="74 341.08 72.27 355.37 79.27 355.37 81.65 341.08 74 341.08"/><polygon class="cls-4" points="12.13 442.51 14.73 442.51 30.87 355.37 33.25 341.08 25.6 341.08 23.87 355.37 12.13 442.51"/><polygon class="cls-5" points="23.87 355.37 30.87 355.37 33.25 341.08 25.6 341.08 23.87 355.37"/><polygon class="cls-4" points="16.26 347.79 134.5 347.79 134.5 335.33 90.24 335.33 75.36 248.78 20.77 248.78 16.26 347.79"/><polygon class="cls-5" points="16.26 347.79 22.7 347.79 26.9 248.78 20.77 248.78 16.26 347.79"/><path class="cls-12" d="M245.65,446.49c-2.12.74-64.63-.13-67-1.58-.28-.16-.7-12.12-.7-12.12,0-1.16-1.26-8.54-1.26-8.54-5.59-13.44-18.91-37.13-18.91-37.13l41,1.1L218,426.32s8.51,3.4,15.93,6.79h0a87.29,87.29,0,0,1,9.46,4.69C245.8,439.66,247.77,445.75,245.65,446.49Z"/><path class="cls-7" d="M245.86,446.62c-2.2.73-65.1.39-67.48-1.14-.92-.57-1.66-21-1.66-21.15l40.57-.24v.69s24,10.88,26.45,12.84S248.06,445.9,245.86,446.62Z"/><path class="cls-6" d="M245.16,444.18c-10.6-.32-53.39-.59-63.89-.1-.08,0-.08.06,0,.07,10.5.54,53.29.47,63.89.2C245.38,444.35,245.38,444.19,245.16,444.18Z"/><path class="cls-6" d="M221.81,424.23c-4.17-.8-9.27-.18-12.48,2.77-.12.11,0,.29.18.24a58.92,58.92,0,0,1,12.28-2.48A.27.27,0,0,0,221.81,424.23Z"/><path class="cls-6" d="M224.81,426.06c-4.17-.8-9.27-.19-12.48,2.77-.12.11,0,.28.18.24a58.92,58.92,0,0,1,12.28-2.48A.27.27,0,0,0,224.81,426.06Z"/><path class="cls-6" d="M227.81,427.89c-4.17-.8-9.27-.19-12.48,2.76-.12.12,0,.29.18.25a58.92,58.92,0,0,1,12.28-2.48A.27.27,0,0,0,227.81,427.89Z"/><path class="cls-9" d="M219,424.58l-48.56.41s-31.62-75.61-34.72-79.72c-1.55-2-73.1-12.65-85.61-23.25-16.25-13.76-4.26-39.41-4.26-39.41l45.9-.18s-2.05,9.86-.34,11.24c1.13.92,67.41,16.4,79,30.86C187.14,345.27,219,424.58,219,424.58Z"/><path class="cls-6" d="M213.15,416.67c-2.58-.14-5.18,0-7.76,0h-7.77c-5.17,0-10.34.06-15.52.1-2.93,0-5.86.21-8.78.33a.09.09,0,1,0,0,.17c5.18.23,10.34.38,15.53.34s10.34-.12,15.52-.28c2.91-.1,5.88-.07,8.78-.35A.13.13,0,1,0,213.15,416.67Z"/><path class="cls-6" d="M170.8,402.87c-1.25-3.24-2.61-6.44-4-9.61-2.75-6.24-5.66-12.4-8.57-18.56q-4.56-9.65-9.14-19.28-2.25-4.74-4.51-9.47a17.18,17.18,0,0,0-2-3.49A8.4,8.4,0,0,0,139,340a43.82,43.82,0,0,0-4.53-1.37l-5-1.37q-5-1.35-10.06-2.59c-6.73-1.66-52.14-10.68-59.65-13.93a18.74,18.74,0,0,1-9.86-10.37c-2.32-6.28-2.13-13-1.37-19.56.2-1.69.46-3.38.72-5.07,0-.1-.15-.15-.17,0-1,6.63-2.16,13.4-1.06,20.09.9,5.5,3.91,11.24,8.73,14.22,9.62,5.93,61.74,15.23,75.2,18.88,1.65.45,3.3.9,4.94,1.37a10,10,0,0,1,4.32,2.11,12.29,12.29,0,0,1,2.38,3.62c.74,1.53,1.45,3.07,2.18,4.61q4.54,9.65,9.12,19.27c6,12.59,12.09,25.18,17.23,38.15.62,1.56,1.23,3.12,1.88,4.67a.17.17,0,0,0,.32-.1C173.28,409.26,172,406.06,170.8,402.87Z"/><path class="cls-12" d="M192.84,457c-2.13.72-63.07-.14-65.39-1.63-2.53-2.41-3.61-59.9-3.61-59.9l39.2-.32,2.44,41.27s8.46,3.52,15.83,7h0a89,89,0,0,1,9.4,4.83C193.08,450.15,195,456.27,192.84,457Z"/><path class="cls-7" d="M194.09,457c-2.2.73-65.1.43-67.49-1.1-.91-.57-1.4-9.72-1.68-20.8v-.35l40.58-.26,0,.69S189.5,446.06,192,448,196.29,456.29,194.09,457Z"/><path class="cls-6" d="M193.39,454.57c-10.61-.31-53.39-.56-63.9-.07-.08,0-.08.07,0,.07,10.5.54,53.29.45,63.9.18C193.61,454.74,193.61,454.58,193.39,454.57Z"/><path class="cls-6" d="M170,434.64c-4.17-.8-9.27-.18-12.47,2.77-.13.11,0,.29.17.25A58.43,58.43,0,0,1,170,435.17.27.27,0,0,0,170,434.64Z"/><path class="cls-6" d="M173,436.47c-4.17-.8-9.28-.19-12.48,2.77-.12.11,0,.29.18.24A59.59,59.59,0,0,1,173,437,.26.26,0,0,0,173,436.47Z"/><path class="cls-6" d="M176,438.29c-4.17-.79-9.28-.18-12.48,2.77-.12.12,0,.29.18.25A58.94,58.94,0,0,1,176,438.82.27.27,0,0,0,176,438.29Z"/><path class="cls-9" d="M167.66,434.9l-44.4.24s.75-79.92-2.71-84.34c-4.62-5.9-69.26-5.77-83.12-25-12.46-17.28,0-43.36,0-43.36H84.49A103.4,103.4,0,0,1,79.9,298s61.35,13.59,75.48,28.93C166.57,339.08,167.66,434.9,167.66,434.9Z"/><path class="cls-6" d="M88.5,294.65A23.22,23.22,0,0,0,84.36,296c-1.41.53-2.79,1.14-4.14,1.8a79.82,79.82,0,0,0-7.75,4.38c-.08,0,0,.15.08.11,2.65-1.37,5.38-2.61,8.12-3.79l4-1.7c1.32-.57,2.74-1.06,4-1.76A.21.21,0,0,0,88.5,294.65Z"/><path class="cls-6" d="M85.57,282.59c-.56,2.23-1,4.48-1.69,6.69-.29,1-.58,2-1,3-.32.83-.81,1.78-1.77,2-1.11.22-1.43-.73-1.34-1.65s.36-2,.56-3.05,1.51-6.78,1.32-7a.08.08,0,0,0-.1,0,10.12,10.12,0,0,0-.82,2.32c-.31,1.06-.61,2.13-.89,3.21s-.53,2.15-.8,3.22a5.12,5.12,0,0,0-.21,2.48,1.89,1.89,0,0,0,1.75,1.43,1.51,1.51,0,0,0-.11.22c-.1.22-.17.45-.26.68s-.16.46-.23.69a2.14,2.14,0,0,0-.06.35c0,.13,0,.25,0,.38s.24.33.34.13.15-.2.21-.31a1.8,1.8,0,0,0,.16-.38c.08-.22.14-.44.2-.67s.12-.45.17-.68,0-.28,0-.41a2.69,2.69,0,0,0,1.29-.49,4.43,4.43,0,0,0,1.33-2c.34-.93.6-1.89.86-2.85A40.84,40.84,0,0,0,86,282.67.2.2,0,0,0,85.57,282.59Z"/><path class="cls-6" d="M56.46,288.05c-.2,1.1-.33,2.22-.59,3.32s-.54,2.15-.89,3.19a11.69,11.69,0,0,1-1.36,2.88,11.08,11.08,0,0,1-2.17,2.21,18.63,18.63,0,0,1-5.25,2.91,22.74,22.74,0,0,1-2.92.86q-.77.16-1.56.27a3.36,3.36,0,0,0-1.25.29.25.25,0,0,0,0,.43,4.55,4.55,0,0,0,2.32.08,17.16,17.16,0,0,0,2.48-.44,18.09,18.09,0,0,0,4.69-2,15,15,0,0,0,3.92-3.2A11.1,11.1,0,0,0,56,294.29a22.56,22.56,0,0,0,.68-6.23A.11.11,0,0,0,56.46,288.05Z"/><path class="cls-6" d="M129.81,379.65q-.65-10.41-1.73-20.79c-.18-1.71-.35-3.42-.56-5.12a15.75,15.75,0,0,0-.86-3.89c-1-2.6-3.19-3.91-5.8-4.57-3.1-.78-6.3-1.25-9.44-1.76s-6.44-1-9.67-1.44c-6.54-.91-13.09-1.75-19.59-2.84a158.06,158.06,0,0,1-19.23-4.32c-5.78-1.75-11.71-3.9-16.34-7.91-10-8.62-10.32-23.07-9.11-35.17.18-1.7.39-3.41.59-5.11,0-.09-.12-.12-.13,0-.79,6.81-1.71,13.66-1,20.52a33.44,33.44,0,0,0,5.45,15.89c3.37,4.83,8.36,8,13.75,10.13a108.27,108.27,0,0,0,18.34,5.28c12.92,2.7,26.1,3.85,39.1,6.07,1.6.27,3.2.56,4.8.88a19.62,19.62,0,0,1,4.33,1.15c2.95,1.32,3.76,4.19,4.13,7.16.85,6.89,1.42,13.82,1.92,20.74,1,13.94,1.54,28,1.52,42,0,1.73-.05,5.08-.06,6.81,0,.15.23.13.23,0C130.85,409.26,130.69,393.63,129.81,379.65Z"/><path class="cls-6" d="M166.52,388.16q-1.35-18.39-4-36.65c-.86-5.88-1.68-11.82-2.92-17.64a15.26,15.26,0,0,0-2.89-6.56,30.22,30.22,0,0,0-6.94-6c-21.59-13.37-67.15-22.82-68.54-23.15a.09.09,0,0,0,0,.17c11.06,2.73,49.5,13.27,65.06,22.25,2.36,1.37,8.74,4.73,11.09,9.58,1.19,2.45,1.75,6.21,2.21,8.89q.76,4.57,1.46,9.17,2.72,18,4.15,36.08c1,12.07,1.89,31.52,1.91,33a.31.31,0,0,0,.61,0C167.82,405,167.42,400.47,166.52,388.16Z"/><path class="cls-6" d="M164.53,426.25c-2.38-.21-4.8-.16-7.19-.23l-7.2-.18c-4.79-.12-9.59-.19-14.39-.27-2.72,0-5.44.07-8.15.12a.09.09,0,0,0,0,.17c4.8.36,9.58.62,14.39.71s9.6.12,14.4.08c2.7,0,5.45.06,8.15-.15A.13.13,0,0,0,164.53,426.25Z"/><path class="cls-9" d="M131.12,204.73,118.4,230.58a1,1,0,0,0,.59,1.65l14.1,3a2.33,2.33,0,0,0,2.26-1l12.72-25.85a1,1,0,0,0-.59-1.64l-14.1-3A2.31,2.31,0,0,0,131.12,204.73Z"/><path class="cls-6" d="M132.79,205.08l-12.71,25.85a1,1,0,0,0,.59,1.64l14.09,3a2.33,2.33,0,0,0,2.27-1l12.71-25.84a1,1,0,0,0-.58-1.65l-14.1-3A2.34,2.34,0,0,0,132.79,205.08Z"/><path class="cls-13" d="M136.39,207.15a1.22,1.22,0,1,1-.91-1.47A1.22,1.22,0,0,1,136.39,207.15Z"/><path class="cls-12" d="M76.85,236.4C81,255.13,94,281.13,101.38,282.87c3.51.83,9.6,3.07,15.12.06,12-6.58,24.22-21.58,28.09-30.86,1.38-3.3-13.68-14.46-16.77-12.21-7.24,5.26-16.82,16.62-17.83,16.31-3.72-1.13-15.78-16.75-24.18-27.73C75.62,215.11,75.18,228.94,76.85,236.4Z"/><path class="cls-12" d="M149,234.41c-.21-7.37-1.4-9.23,1.72-15.54,2-4.15.28-7.24-3.61-4.41-6.36,4.62-8.08,14.19-7.72,17.67Z"/><path class="cls-12" d="M143.11,254.89s5.28-9,5.83-16.91c.38-5.45-.12-17.39-13.55-26.62-3.18-2.19-9.28-3.05-5.37,2.41,2.77,3.89,5.7,5.51,6.9,8.06,0,0-7.88-.18-9.95,3.1a73.35,73.35,0,0,0-4.8,8.95,17.11,17.11,0,0,0,1.6,1.05s-1.84,3.12-.41,8.46Z"/><path class="cls-12" d="M148.47,232.73c-1.73-2.29-5.47-7.06-9.89-9.9-4.91-3.15-15.22-7.91-17.51-4.26-1.68,2.68,2.1,4.84,2.1,4.84s-4.68-1.07-5.67,1.68c-.9,2.5,2.12,4,2.12,4s-3-.16-3.35,2.42c-.48,3.1,5.77,2.93,8,6.5C124.76,238.81,148.47,232.73,148.47,232.73Z"/><path class="cls-6" d="M136.11,228.57a23.24,23.24,0,0,0-12.84-5.22c-.12,0-.19.08-.08.11a57.56,57.56,0,0,1,12.89,5.16S136.13,228.6,136.11,228.57Z"/><path class="cls-6" d="M132.78,233.44A26,26,0,0,0,119.66,229c-.12,0-.19.09-.08.11a61.18,61.18,0,0,1,13.17,4.39S132.81,233.46,132.78,233.44Z"/><path class="cls-7" d="M104.08,247.75,84.43,267.1s-8.82-29-9-38.28c-.21-10.43,5.17-8.26,12.37-1.45S104.08,247.75,104.08,247.75Z"/><path class="cls-6" d="M83.6,260.77c.58-.78,6.61-6.9,8-8.21s6.76-6.68,8.25-7.91c.07-.05.16,0,.1.1-1.23,1.48-6.68,6.92-8,8.27s-7.44,7.29-8.2,7.84C83.62,260.91,83.56,260.82,83.6,260.77Z"/><path class="cls-7" d="M93,289.33c-1.38,1.34-60.46,7.46-60.75,7.06-.79-1.07,10.29-56.5,34-75.59,4.17-3.36,11.12-1.94,14.27.08,1.57,1,6.64,9.36,7.89,16.44S93.83,288.48,93,289.33Z"/><path class="cls-9" d="M46.45,249.13l43.37.37c-.11-1.07-.22-2.09-.33-3.07l-41.61-.35C47.39,247.08,46.91,248.1,46.45,249.13Z"/><path class="cls-9" d="M43.8,255.26l46.67.38c-.12-1-.21-2.07-.32-3.07l-45.07-.37C44.64,253.21,44.21,254.24,43.8,255.26Z"/><path class="cls-9" d="M82.51,221.88c2.32,2.39,2.71,9.78-2.14,10.88S69.48,225.66,69,221.4,77.37,216.6,82.51,221.88Z"/><path class="cls-12" d="M80.49,230.87c-3.45.5-8.8-5.17-10.73-9.55-.13-.3,2.07-11.66,2.27-14,0-.47,14.12,4.77,14.12,4.77A36.83,36.83,0,0,0,84,220.82C84,221.16,83.82,230.38,80.49,230.87Z"/><path class="cls-6" d="M72.48,207.39c.41,3.77,2.2,13.62,10,14.5a11.59,11.59,0,0,0,1.42,0c0-.63,0-1,0-1.11a37,37,0,0,1,2.16-8.69l0,0-.23-.08h0l-.39-.15a.76.76,0,0,0-.16-.06l-.31-.12-.39-.14-.66-.24a1.34,1.34,0,0,0-.24-.09l-.51-.19-2-.72-.76-.27-1-.35-1-.34-.13,0-1.64-.58-.55-.19-1-.35-.7-.23L73,207.53l-.3-.08Z"/><path class="cls-12" d="M73.64,189.68c-2.59,4.69-3,19.74-.1,23.73,4.2,5.77,12.58,8,17.88,2.62,5.13-5.21,5.3-24.84,1.93-28.61C88.38,181.85,77.46,182.74,73.64,189.68Z"/><path class="cls-6" d="M85.66,201.47s-.08.05-.08.09c0,1-.19,2.19-1.13,2.5,0,0,0,.06,0,.05C85.59,204,85.82,202.44,85.66,201.47Z"/><path class="cls-6" d="M84.79,200.37c-1.64-.19-1.9,3.1-.38,3.28S86.16,200.53,84.79,200.37Z"/><path class="cls-6" d="M91.55,201.85s.07.05.07.09c-.12,1-.08,2.2.81,2.62a0,0,0,0,1,0,.06C91.31,204.36,91.27,202.79,91.55,201.85Z"/><path class="cls-6" d="M92.55,200.86c1.65,0,1.5,3.31,0,3.3S91.17,200.85,92.55,200.86Z"/><path class="cls-6" d="M86.11,199a11.44,11.44,0,0,1-1.31.34,2.17,2.17,0,0,1-1.4.08.69.69,0,0,1-.38-.76,1.73,1.73,0,0,1,1.35-1.12,2.56,2.56,0,0,1,1.83.1A.74.74,0,0,1,86.11,199Z"/><path class="cls-6" d="M94.1,198.17a11.36,11.36,0,0,1-1.28-.44,2.13,2.13,0,0,1-1.22-.7.7.7,0,0,1,.1-.84,1.74,1.74,0,0,1,1.75-.19,2.49,2.49,0,0,1,1.47,1.09A.74.74,0,0,1,94.1,198.17Z"/><path class="cls-6" d="M84.88,209.57a8.59,8.59,0,0,1,4,.07c.12,0,.24-.24.27-.35h0s.08-2.16.08-2.16c.28.16,1.68.91,1.68.5a51.84,51.84,0,0,0-.59-10.47.1.1,0,0,0-.19,0c-.16,3.24.24,6.48.13,9.74a6,6,0,0,0-1.58-.61c-.12,0,0,2.29,0,2.63a5,5,0,0,0-3.77.19C84.44,209.37,84.24,209.77,84.88,209.57Z"/><path class="cls-6" d="M82.2,211.7c.23.25.45.59.82.65a2.61,2.61,0,0,0,1.1-.19,0,0,0,0,1,0,.06,1.37,1.37,0,0,1-1.32.46,1.09,1.09,0,0,1-.74-.94C82.09,211.68,82.17,211.66,82.2,211.7Z"/><path class="cls-6" d="M87.31,208.66c-1-.08-4.15.26-3.82,1.8.15.67,1.23.61,2.19,0A6.65,6.65,0,0,0,87.31,208.66Z"/><path class="cls-14" d="M85.2,210.69c-.81.38-1.59.33-1.71-.23a1,1,0,0,1,.4-1C84.47,209.52,85.67,209.77,85.2,210.69Z"/><path class="cls-6" d="M70.75,202.39c-.23-1.41-2-16.54-1.46-18.09s2-.64,2.09-.72.23-1.41,1.12-1.81a2.27,2.27,0,0,1,1.78.24s.41-1.37,1.34-1.65a1.78,1.78,0,0,1,1.68.57,2.36,2.36,0,0,1,1.61-1.51,1.55,1.55,0,0,1,1.63.85s.53-1.3,1.48-1.45,1.63.93,1.63.93a2,2,0,0,1,1.77-1c1.14.11,1.41,1.39,1.41,1.39a2.43,2.43,0,0,1,1.86-1c1,.1,1.26,1.45,1.26,1.45s.57-1.12,1.55-.93,1,1.61,1,1.61.7-1.22,1.82-.71c1.72.78.95,9.35.93,13.1,0,0-.3-1.83-1-2s-1.45,1-2.9,1.13c-3.64.29-5.67-2.46-8.51-2.19s-4.2,2.78-5.67,6.9C75.52,202.1,71.28,205.74,70.75,202.39Z"/><path class="cls-12" d="M74.25,202.14s-2.4-5.33-4.76-4.56-1.18,8.06,1.16,9.47a2.6,2.6,0,0,0,3.68-.73Z"/><path class="cls-6" d="M69.88,199.66s-.06,0,0,.07c1.63,1,2.25,2.85,2.58,4.66a1.45,1.45,0,0,0-2-.79.06.06,0,0,0,0,.11,1.58,1.58,0,0,1,1.62.87,7.88,7.88,0,0,1,.57,1.56c0,.17.35.14.32,0V206C73.4,203.81,72.25,200.34,69.88,199.66Z"/><path class="cls-12" d="M59.86,232.09c-2.37,11.63-3.43,53,4.4,59.4s15.34,4.05,16.28-4c.78-6.65-7.3-46.91-10.15-56.47C67.68,221.92,62.63,218.51,59.86,232.09Z"/><path class="cls-7" d="M78.63,257.06l-25.85,9.59s3.85-30.08,7.47-38.6c4.09-9.6,8.1-5.41,11.89,3.75S78.63,257.06,78.63,257.06Z"/><path class="cls-6" d="M54.62,260.54c.84-.47,8.85-3.59,10.61-4.23S74.13,253,76,252.48a.07.07,0,0,1,0,.13c-1.73.84-8.93,3.57-10.71,4.26s-9.76,3.6-10.69,3.79C54.57,260.68,54.56,260.57,54.62,260.54Z"/><path class="cls-6" d="M76.48,257.63c.76-.34,2-.83,2-.83-1.09-3.7-1.8-7.54-2.72-11.28s-1.77-7.63-2.66-11.45c0-.06.07-.08.09,0,.64,2.13,1.28,4.25,1.89,6.38l-.09-.84c-.11-1-.19-2-.33-3,0-.09.11-.12.13,0a25,25,0,0,1,.53,3c.07.71.09,1.41.1,2.12.35,1.22.7,2.44,1,3.68,1,3.79,2.32,7.92,3,11.77,0,0-1.89.52-2.86.69A.1.1,0,0,1,76.48,257.63Z"/><path class="cls-6" d="M58.27,264.62q-2.67,1.23-5.38,2.34l-.48.19.05-.53c.36-4.6.95-9.16,1.69-13.71.38-2.27.79-4.54,1.3-6.79s1-4.49,1.74-6.69l-1.09,6.81-1,6.82c-.66,4.54-1.3,9.09-2,13.63l-.43-.34C54.52,265.73,56.38,265.15,58.27,264.62Z"/><path class="cls-6" d="M55.16,243c.12,1,.13,1.87.16,2.79s0,1.83.07,2.78a5,5,0,0,1-.43-1.35,9.62,9.62,0,0,1-.14-1.42A9.51,9.51,0,0,1,55.16,243Z"/><path class="cls-12" d="M65.29,285.11c-1.81,8.69,6.44,12.11,11.85,9.09,12.71-7.11,23.91-23.65,29.74-36.7,1.72-3.87-21.68-11.9-24.28-8.19C79,254.49,69,267.47,65.29,285.11Z"/><path class="cls-12" d="M91,237.73c-1,1.22-1.65.7-1.58-2.1s2.7-13.84-1.23-14.43-7.42,15-7.17,19.7,2.29,12.15,2.29,12.15C84.55,250.15,88.35,243.4,91,237.73Z"/><path class="cls-12" d="M105.56,260.15c4.44-8.61,8-18.47,6.47-28.46a5,5,0,0,0-1.45-2.94c-.6-4.49-2.9-5.55-2.9-5.55-1.84-4-4.34-4.78-4.34-4.78s-.77-5.26-4-5.33c-3.66-.09-1.87,7.32-3.38,12-3.46,10.71-11.37,25-12.68,28Z"/><path class="cls-6" d="M100.2,238.86a71.32,71.32,0,0,0,2.5-9.55,72.18,72.18,0,0,0,.55-10.8.09.09,0,0,1,.18,0,38.39,38.39,0,0,1-3.08,20.41C100.28,239.06,100.16,239,100.2,238.86Z"/><path class="cls-6" d="M106.37,241.89c.75-3.14,2-8.66,1.2-18.68,0,0,.05-.05.06,0a34.33,34.33,0,0,1-1.11,18.74C106.45,242.12,106.32,242.1,106.37,241.89Z"/><path class="cls-6" d="M109.71,243.46a54.06,54.06,0,0,0,.85-14.68s0-.05.06,0c1,6.52.57,9-.73,14.75C109.84,243.72,109.67,243.67,109.71,243.46Z"/><path class="cls-6" d="M95.34,226.85a20,20,0,0,0,1-5.49,36.32,36.32,0,0,1,.37-5.67,7.39,7.39,0,0,1,.46-1.4,2.84,2.84,0,0,1,1-1.19,3,3,0,0,1,1.51-.37,2.4,2.4,0,0,1,1.44.51,5,5,0,0,1,1.59,2.42,14,14,0,0,1,.64,2.76,18,18,0,0,0-.91-2.65,4.83,4.83,0,0,0-1.59-2.15,2.08,2.08,0,0,0-1.18-.36,2.44,2.44,0,0,0-1.2.31,3.5,3.5,0,0,0-1.15,2.25,42.23,42.23,0,0,0-.5,5.57A15.59,15.59,0,0,1,95.34,226.85Z"/><path class="cls-6" d="M83,229.08a22.53,22.53,0,0,1,1.84-5.48,6.3,6.3,0,0,1,1.88-2.31,2.34,2.34,0,0,1,1.56-.38,2,2,0,0,1,1.38.9,6.24,6.24,0,0,1,.91,2.87,18.13,18.13,0,0,1,.09,2.94c-.14,2-.43,3.85-.68,5.75a15.74,15.74,0,0,0-.2,2.79,8.29,8.29,0,0,0,.17,1.36,1.37,1.37,0,0,0,.21.51s0,0,0,0a.6.6,0,0,0,.13-.08,8,8,0,0,0,1.35-2.34c.4-.86.77-1.74,1.15-2.63.74-1.76,1.43-3.55,2.11-5.34a30.3,30.3,0,0,0,1.63-5.51,27.11,27.11,0,0,1-1.29,5.62c-.58,1.84-1.24,3.65-1.92,5.45-.34.9-.69,1.79-1.07,2.68-.18.45-.38.89-.6,1.33-.11.22-.22.44-.37.68a3.3,3.3,0,0,1-.53.62,1,1,0,0,1-.51.23.75.75,0,0,1-.63-.25,1.87,1.87,0,0,1-.37-.81,8.54,8.54,0,0,1-.22-1.48,15.87,15.87,0,0,1,.17-2.95c.2-1.91.57-3.82.71-5.69a16.59,16.59,0,0,0,0-2.82,6.25,6.25,0,0,0-.74-2.58,1.46,1.46,0,0,0-.93-.68,1.76,1.76,0,0,0-1.19.25,5.89,5.89,0,0,0-1.79,2.06A25.21,25.21,0,0,0,83,229.08Z"/><path class="cls-6" d="M67.08,278.81c.46-1.81,1-3.58,1.68-5.33s1.34-3.49,2.1-5.2,1.58-3.38,2.49-5a46.63,46.63,0,0,1,3-4.74c-.39.85-.84,1.66-1.22,2.52s-.81,1.67-1.21,2.5c-.77,1.69-1.56,3.37-2.31,5.07Z"/><path class="cls-6" d="M95,277.51c1.17-1.84,2.34-3.67,3.47-5.52s2.27-3.7,3.34-5.59,2.15-3.77,3.18-5.67,2-3.85,3-5.78a61,61,0,0,1-2.51,6c-.94,2-2,3.89-3.06,5.78s-2.25,3.74-3.5,5.53A64.23,64.23,0,0,1,95,277.51Z"/></g></g></svg>