<svg xmlns="http://www.w3.org/2000/svg" xmlns:xlink="http://www.w3.org/1999/xlink" xmlns:svgjs="http://svgjs.dev/svgjs" version="1.1" width="1000" height="623" viewBox="0 0 1000 623"><g transform="matrix(1,0,0,1,-0.6060606060606233,0.2522267206477409)"><svg xmlns="http://www.w3.org/2000/svg" xmlns:xlink="http://www.w3.org/1999/xlink" viewBox="0 0 396 247" data-background-color="#97978d" preserveAspectRatio="xMidYMid meet" height="623" width="1000"><g id="tight-bounds" transform="matrix(1,0,0,1,0.2400000000000091,-0.09999999999999432)"><svg viewBox="0 0 395.52 247.2" height="247.2" width="395.52"><g><svg/></g><g><svg viewBox="0 0 395.52 247.2" height="247.2" width="395.52"><mask id="cfb7c2a8-1762-4144-8922-e5c05bb94cd4"><rect width="640" height="400" fill="white"/><g transform="matrix(1,0,0,1,57.485777708801606,37.08)"><svg viewBox="0 0 280.54844458239677 173.04" height="173.04" width="280.54844458239677"><g><svg viewBox="0 0 280.54844458239677 173.04" height="173.04" width="280.54844458239677"><g><svg viewBox="0 0 316.416 195.1628166090909" height="173.04" width="280.54844458239677"><g><svg viewBox="0 0 316.416 195.1628166090909" height="195.1628166090909" width="316.416"><g id="SvgjsG1003"><svg viewBox="0 0 316.416 195.1628166090909" height="195.1628166090909" width="316.416" id="SvgjsSvg1002"><g><svg viewBox="0 0 316.416 112.991" height="112.991" width="316.416"><g transform="matrix(1,0,0,1,0,0)"><svg width="316.416" viewBox="-2 -29.93 132.99 48.14" height="112.991" data-palette-color="#ffffff"><path d="M18.46-24.22L18.46-24.22 18.21-22.12Q16.16-22.41 14.7-22.41L14.7-22.41Q11.33-22.41 9.13-20.39 6.93-18.36 6.13-15.6 5.32-12.84 5.32-9.47L5.32-9.47Q5.32-7.91 5.52-6.69 5.71-5.47 6.23-4.3 6.74-3.13 7.84-2.47 8.94-1.81 10.55-1.81L10.55-1.81Q12.7-1.81 16.02-2.64L16.02-2.64Q17.04-3.03 17.63-3.03L17.63-3.03Q18.8-3.03 19.04-0.29L19.04-0.29Q14.75 1.07 11.08 1.07L11.08 1.07Q5.76 1.07 3.88-1.54 2-4.15 2-10.01L2-10.01Q2-13.43 2.47-15.99 2.93-18.55 4.1-20.78 5.27-23 7.5-24.17 9.72-25.34 12.94-25.34L12.94-25.34Q16.55-25.34 18.46-24.22ZM21.53-10.4L21.53-10.4Q21.53-12.35 21.95-14.75 22.36-17.14 23.19-19.78 24.02-22.41 25.68-24.17 27.34-25.93 29.54-25.93L29.54-25.93Q34.23-25.93 37.06-21.7 39.89-17.48 39.89-12.3L39.89-12.3Q39.89-10.11 39.43-7.93 38.96-5.76 37.99-3.66 37.01-1.56 35.18-0.17 33.35 1.22 30.91 1.42L30.91 1.42Q26.41 0.83 23.97-2.42 21.53-5.66 21.53-10.4ZM29.83-23.39L29.83-23.39Q28.12-23.19 26.95-20.26 25.78-17.33 25.44-14.58 25.1-11.82 25.1-9.72L25.1-9.72Q25.1-6.98 26.78-4.66 28.46-2.34 30.56-2.34L30.56-2.34Q32.08-2.34 33.3-3.52 34.52-4.69 35.23-6.42 35.94-8.15 36.3-9.91 36.67-11.67 36.67-13.04L36.67-13.04Q36.67-17.04 34.86-20.02 33.05-23 29.83-23.39ZM58.34-24.51L58.34-24.51 60.69-24.07 60.69-23.58Q60.69-20.26 61.1-12.35 61.52-4.44 61.86-0.15L61.86-0.15Q60.88 0.24 60 0.24L60 0.24Q59.22 0.24 58.25 0L58.25 0 57.86-1.27Q54.73 0.49 51.9 0.49L51.9 0.49Q49.8 0.49 48.26-0.49 46.72-1.46 45.89-2.91 45.06-4.35 44.58-6.47 44.09-8.59 43.96-10.33 43.84-12.06 43.84-14.21L43.84-14.21Q43.84-20.46 44.62-25.68L44.62-25.68 46.82-25.2Q47.16-23.58 47.16-21.68L47.16-21.68Q47.16-20.61 47.04-17.97 46.92-15.33 46.92-13.96L46.92-13.96Q46.92-11.57 47.14-9.84 47.36-8.11 47.97-6.47 48.58-4.83 49.85-3.96 51.12-3.08 53.02-3.08L53.02-3.08Q55.17-3.08 57.66-4.05L57.66-4.05Q57.76-5.86 57.86-13.31 57.95-20.75 58.34-24.51ZM65.81 11.77L66.4-25.68 69.13-25.2Q69.13-24.17 69.18-23.68L69.18-23.68Q71.87-25.39 74.6-25.39L74.6-25.39Q79.05-25.39 81.54-21.58 84.03-17.77 84.03-12.94L84.03-12.94Q84.03-10.5 83.66-8.28 83.29-6.05 82.37-3.74 81.44-1.42 79.51-0.02 77.58 1.37 74.85 1.37L74.85 1.37Q72.26 1.37 69.87 0L69.87 0Q70.06 8.54 70.21 12.7L70.21 12.7Q69.77 14.21 68.5 14.21L68.5 14.21Q67.62 14.21 66.81 13.5 66.01 12.79 65.81 11.77L65.81 11.77ZM69.57-20.51L69.57-20.51 69.72-4.74Q70.31-3.56 71.53-2.86 72.75-2.15 74.21-2.15L74.21-2.15Q76.12-2.15 77.46-3.37 78.8-4.59 79.36-6.62 79.92-8.64 80.14-10.4 80.36-12.16 80.36-14.11L80.36-14.11Q80.36-22.41 74.75-22.41L74.75-22.41Q72.94-22.41 71.4-21.9 69.87-21.39 69.57-20.51ZM87.98-10.4L87.98-10.4Q87.98-12.35 88.39-14.75 88.81-17.14 89.64-19.78 90.47-22.41 92.13-24.17 93.79-25.93 95.99-25.93L95.99-25.93Q100.67-25.93 103.51-21.7 106.34-17.48 106.34-12.3L106.34-12.3Q106.34-10.11 105.87-7.93 105.41-5.76 104.43-3.66 103.46-1.56 101.63-0.17 99.79 1.22 97.35 1.42L97.35 1.42Q92.86 0.83 90.42-2.42 87.98-5.66 87.98-10.4ZM96.28-23.39L96.28-23.39Q94.57-23.19 93.4-20.26 92.23-17.33 91.88-14.58 91.54-11.82 91.54-9.72L91.54-9.72Q91.54-6.98 93.23-4.66 94.91-2.34 97.01-2.34L97.01-2.34Q98.53-2.34 99.75-3.52 100.97-4.69 101.67-6.42 102.38-8.15 102.75-9.91 103.12-11.67 103.12-13.04L103.12-13.04Q103.12-17.04 101.31-20.02 99.5-23 96.28-23.39ZM113.61-19.53L113.61-19.53 113.81-0.2Q113.07 0.2 112.05 0.2L112.05 0.2Q111.27 0.2 110.29-0.05L110.29-0.05Q110.44-3.13 110.49-12.16 110.53-21.19 110.88-25.54L110.88-25.54 113.07-25.05 113.22-22.31Q115.81-25.05 119.18-25.05L119.18-25.05Q120.89-25.05 121.91-24.8 122.94-24.56 123.89-23.61 124.84-22.66 125.33-21.09 125.82-19.53 126.21-16.63 126.6-13.72 126.77-9.84 126.94-5.96 126.99-0.05L126.99-0.05Q126.7 0.05 125.87 0.05L125.87 0.05Q124.11 0.05 123.13-0.39L123.13-0.39Q122.94-1.17 122.94-2.98L122.94-2.98Q122.94-3.91 123.01-6.47 123.08-9.03 123.08-10.45L123.08-10.45Q123.08-12.79 122.91-14.55 122.74-16.31 122.28-18.02 121.81-19.73 120.86-20.65 119.91-21.58 118.49-21.58L118.49-21.58Q116.88-21.58 115.98-21.34 115.08-21.09 114.71-20.75 114.34-20.41 113.61-19.53Z" opacity="1" transform="matrix(1,0,0,1,0,0)" fill="black" class="wordmark-text-0" id="SvgjsPath1001" stroke-width="7" stroke="black" stroke-linejoin="round"/></svg></g></svg></g><g transform="matrix(1,0,0,1,3.5,135.70419388181818)"><svg viewBox="0 0 309.416 59.45862272727273" height="59.45862272727273" width="309.416"><g transform="matrix(1,0,0,1,0,0)"><svg width="309.416" viewBox="-2.6 -39.35 230.4 43.85" height="59.45862272727273" data-palette-color="#ffffff"><path d="M11.2 0.5L11.2 0.5Q8.45 0.5 6.23-0.88 4-2.25 2.7-4.55 1.4-6.85 1.4-9.7L1.4-9.7 1.45-25.3Q1.45-28.05 2.73-30.33 4-32.6 6.23-33.98 8.45-35.35 11.2-35.35L11.2-35.35Q13.95-35.35 16.15-34 18.35-32.65 19.65-30.38 20.95-28.1 20.95-25.3L20.95-25.3 20.95-23Q20.95-22.8 20.75-22.8L20.75-22.8 15.15-22.8Q14.95-22.8 14.95-23L14.95-23 14.95-25.3Q14.95-26.95 13.88-28.15 12.8-29.35 11.2-29.35L11.2-29.35Q9.4-29.35 8.45-28.13 7.5-26.9 7.5-25.3L7.5-25.3 7.5-9.7Q7.5-7.85 8.58-6.7 9.65-5.55 11.2-5.55L11.2-5.55Q12.8-5.55 13.88-6.83 14.95-8.1 14.95-9.7L14.95-9.7 14.95-12Q14.95-12.2 15.15-12.2L15.15-12.2 20.8-12.2Q21-12.2 21-12L21-12 21-9.7Q21-6.85 19.68-4.55 18.35-2.25 16.15-0.88 13.95 0.5 11.2 0.5ZM86.82 0L70.67 0Q70.47 0 70.47-0.25L70.47-0.25 70.52-34.55Q70.52-34.8 70.77-34.8L70.77-34.8 76.32-34.8Q76.57-34.8 76.57-34.55L76.57-34.55 76.52-6.15 86.82-6.15Q87.07-6.15 87.07-5.9L87.07-5.9 87.07-0.25Q87.07 0 86.82 0L86.82 0ZM144.33 0.5L144.33 0.5Q141.68 0.5 139.43-0.88 137.18-2.25 135.86-4.55 134.53-6.85 134.53-9.6L134.53-9.6 134.63-34.6Q134.63-34.8 134.83-34.8L134.83-34.8 140.43-34.8Q140.63-34.8 140.63-34.6L140.63-34.6 140.63-9.6Q140.63-7.9 141.71-6.73 142.78-5.55 144.33-5.55L144.33-5.55Q145.93-5.55 147.01-6.73 148.08-7.9 148.08-9.6L148.08-9.6 148.08-34.6Q148.08-34.8 148.28-34.8L148.28-34.8 153.88-34.8Q154.08-34.8 154.08-34.6L154.08-34.6 154.18-9.6Q154.18-6.8 152.86-4.5 151.53-2.2 149.31-0.85 147.08 0.5 144.33 0.5ZM213.1 0L204.15 0Q203.95 0 203.95-0.25L203.95-0.25 204.05-34.6Q204.05-34.8 204.25-34.8L204.25-34.8 213.85-34.8Q216.7-34.8 218.95-33.43 221.2-32.05 222.5-29.8 223.8-27.55 223.8-24.9L223.8-24.9Q223.8-22.75 222.83-20.9 221.85-19.05 220.5-17.9L220.5-17.9Q221.95-16.45 222.75-14.55 223.55-12.65 223.55-10.55L223.55-10.55Q223.55-7.65 222.15-5.25 220.75-2.85 218.38-1.43 216 0 213.1 0L213.1 0ZM210.05-28.85L210.05-21 213.85-21Q215.6-21 216.68-22.23 217.75-23.45 217.75-24.9L217.75-24.9Q217.75-26.5 216.6-27.68 215.45-28.85 213.85-28.85L213.85-28.85 210.05-28.85ZM210.05-14.95L210-6.1 213.1-6.1Q214.9-6.1 216.2-7.43 217.5-8.75 217.5-10.55L217.5-10.55Q217.5-12.35 216.2-13.65 214.9-14.95 213.1-14.95L213.1-14.95 210.05-14.95Z" opacity="1" transform="matrix(1,0,0,1,0,0)" fill="black" class="slogan-text-1" id="SvgjsPath1000" stroke-width="7" stroke="black" stroke-linejoin="round"/></svg></g></svg></g></svg></g></svg></g></svg></g></svg></g></svg></g></mask><g transform="matrix(1,0,0,1,57.485777708801606,37.08)"><svg viewBox="0 0 280.54844458239677 173.04" height="173.04" width="280.54844458239677"><g><svg viewBox="0 0 280.54844458239677 173.04" height="173.04" width="280.54844458239677"><g><svg viewBox="0 0 316.416 195.1628166090909" height="173.04" width="280.54844458239677"><g><svg viewBox="0 0 316.416 195.1628166090909" height="195.1628166090909" width="316.416"><g id="textblocktransform"><svg viewBox="0 0 316.416 195.1628166090909" height="195.1628166090909" width="316.416" id="textblock"><g><svg viewBox="0 0 316.416 112.991" height="112.991" width="316.416"><g transform="matrix(1,0,0,1,0,0)"><svg width="316.416" viewBox="-2 -29.93 132.99 48.14" height="112.991" data-palette-color="#ffffff"><path d="M18.46-24.22L18.46-24.22 18.21-22.12Q16.16-22.41 14.7-22.41L14.7-22.41Q11.33-22.41 9.13-20.39 6.93-18.36 6.13-15.6 5.32-12.84 5.32-9.47L5.32-9.47Q5.32-7.91 5.52-6.69 5.71-5.47 6.23-4.3 6.74-3.13 7.84-2.47 8.94-1.81 10.55-1.81L10.55-1.81Q12.7-1.81 16.02-2.64L16.02-2.64Q17.04-3.03 17.63-3.03L17.63-3.03Q18.8-3.03 19.04-0.29L19.04-0.29Q14.75 1.07 11.08 1.07L11.08 1.07Q5.76 1.07 3.88-1.54 2-4.15 2-10.01L2-10.01Q2-13.43 2.47-15.99 2.93-18.55 4.1-20.78 5.27-23 7.5-24.17 9.72-25.34 12.94-25.34L12.94-25.34Q16.55-25.34 18.46-24.22ZM21.53-10.4L21.53-10.4Q21.53-12.35 21.95-14.75 22.36-17.14 23.19-19.78 24.02-22.41 25.68-24.17 27.34-25.93 29.54-25.93L29.54-25.93Q34.23-25.93 37.06-21.7 39.89-17.48 39.89-12.3L39.89-12.3Q39.89-10.11 39.43-7.93 38.96-5.76 37.99-3.66 37.01-1.56 35.18-0.17 33.35 1.22 30.91 1.42L30.91 1.42Q26.41 0.83 23.97-2.42 21.53-5.66 21.53-10.4ZM29.83-23.39L29.83-23.39Q28.12-23.19 26.95-20.26 25.78-17.33 25.44-14.58 25.1-11.82 25.1-9.72L25.1-9.72Q25.1-6.98 26.78-4.66 28.46-2.34 30.56-2.34L30.56-2.34Q32.08-2.34 33.3-3.52 34.52-4.69 35.23-6.42 35.94-8.15 36.3-9.91 36.67-11.67 36.67-13.04L36.67-13.04Q36.67-17.04 34.86-20.02 33.05-23 29.83-23.39ZM58.34-24.51L58.34-24.51 60.69-24.07 60.69-23.58Q60.69-20.26 61.1-12.35 61.52-4.44 61.86-0.15L61.86-0.15Q60.88 0.24 60 0.24L60 0.24Q59.22 0.24 58.25 0L58.25 0 57.86-1.27Q54.73 0.49 51.9 0.49L51.9 0.49Q49.8 0.49 48.26-0.49 46.72-1.46 45.89-2.91 45.06-4.35 44.58-6.47 44.09-8.59 43.96-10.33 43.84-12.06 43.84-14.21L43.84-14.21Q43.84-20.46 44.62-25.68L44.62-25.68 46.82-25.2Q47.16-23.58 47.16-21.68L47.16-21.68Q47.16-20.61 47.04-17.97 46.92-15.33 46.92-13.96L46.92-13.96Q46.92-11.57 47.14-9.84 47.36-8.11 47.97-6.47 48.58-4.83 49.85-3.96 51.12-3.08 53.02-3.08L53.02-3.08Q55.17-3.08 57.66-4.05L57.66-4.05Q57.76-5.86 57.86-13.31 57.95-20.75 58.34-24.51ZM65.81 11.77L66.4-25.68 69.13-25.2Q69.13-24.17 69.18-23.68L69.18-23.68Q71.87-25.39 74.6-25.39L74.6-25.39Q79.05-25.39 81.54-21.58 84.03-17.77 84.03-12.94L84.03-12.94Q84.03-10.5 83.66-8.28 83.29-6.05 82.37-3.74 81.44-1.42 79.51-0.02 77.58 1.37 74.85 1.37L74.85 1.37Q72.26 1.37 69.87 0L69.87 0Q70.06 8.54 70.21 12.7L70.21 12.7Q69.77 14.21 68.5 14.21L68.5 14.21Q67.62 14.21 66.81 13.5 66.01 12.79 65.81 11.77L65.81 11.77ZM69.57-20.51L69.57-20.51 69.72-4.74Q70.31-3.56 71.53-2.86 72.75-2.15 74.21-2.15L74.21-2.15Q76.12-2.15 77.46-3.37 78.8-4.59 79.36-6.62 79.92-8.64 80.14-10.4 80.36-12.16 80.36-14.11L80.36-14.11Q80.36-22.41 74.75-22.41L74.75-22.41Q72.94-22.41 71.4-21.9 69.87-21.39 69.57-20.51ZM87.98-10.4L87.98-10.4Q87.98-12.35 88.39-14.75 88.81-17.14 89.64-19.78 90.47-22.41 92.13-24.17 93.79-25.93 95.99-25.93L95.99-25.93Q100.67-25.93 103.51-21.7 106.34-17.48 106.34-12.3L106.34-12.3Q106.34-10.11 105.87-7.93 105.41-5.76 104.43-3.66 103.46-1.56 101.63-0.17 99.79 1.22 97.35 1.42L97.35 1.42Q92.86 0.83 90.42-2.42 87.98-5.66 87.98-10.4ZM96.28-23.39L96.28-23.39Q94.57-23.19 93.4-20.26 92.23-17.33 91.88-14.58 91.54-11.82 91.54-9.72L91.54-9.72Q91.54-6.98 93.23-4.66 94.91-2.34 97.01-2.34L97.01-2.34Q98.53-2.34 99.75-3.52 100.97-4.69 101.67-6.42 102.38-8.15 102.75-9.91 103.12-11.67 103.12-13.04L103.12-13.04Q103.12-17.04 101.31-20.02 99.5-23 96.28-23.39ZM113.61-19.53L113.61-19.53 113.81-0.2Q113.07 0.2 112.05 0.2L112.05 0.2Q111.27 0.2 110.29-0.05L110.29-0.05Q110.44-3.13 110.49-12.16 110.53-21.19 110.88-25.54L110.88-25.54 113.07-25.05 113.22-22.31Q115.81-25.05 119.18-25.05L119.18-25.05Q120.89-25.05 121.91-24.8 122.94-24.56 123.89-23.61 124.84-22.66 125.33-21.09 125.82-19.53 126.21-16.63 126.6-13.72 126.77-9.84 126.94-5.96 126.99-0.05L126.99-0.05Q126.7 0.05 125.87 0.05L125.87 0.05Q124.11 0.05 123.13-0.39L123.13-0.39Q122.94-1.17 122.94-2.98L122.94-2.98Q122.94-3.91 123.01-6.47 123.08-9.03 123.08-10.45L123.08-10.45Q123.08-12.79 122.91-14.55 122.74-16.31 122.28-18.02 121.81-19.73 120.86-20.65 119.91-21.58 118.49-21.58L118.49-21.58Q116.88-21.58 115.98-21.34 115.08-21.09 114.71-20.75 114.34-20.41 113.61-19.53Z" opacity="1" transform="matrix(1,0,0,1,0,0)" fill="#ffffff" class="wordmark-text-0" data-fill-palette-color="primary" id="text-0"/></svg></g></svg></g><g transform="matrix(1,0,0,1,3.5,135.70419388181818)"><svg viewBox="0 0 309.416 59.45862272727273" height="59.45862272727273" width="309.416"><g transform="matrix(1,0,0,1,0,0)"><svg width="309.416" viewBox="-2.6 -39.35 230.4 43.85" height="59.45862272727273" data-palette-color="#ffffff"><path d="M11.2 0.5L11.2 0.5Q8.45 0.5 6.23-0.88 4-2.25 2.7-4.55 1.4-6.85 1.4-9.7L1.4-9.7 1.45-25.3Q1.45-28.05 2.73-30.33 4-32.6 6.23-33.98 8.45-35.35 11.2-35.35L11.2-35.35Q13.95-35.35 16.15-34 18.35-32.65 19.65-30.38 20.95-28.1 20.95-25.3L20.95-25.3 20.95-23Q20.95-22.8 20.75-22.8L20.75-22.8 15.15-22.8Q14.95-22.8 14.95-23L14.95-23 14.95-25.3Q14.95-26.95 13.88-28.15 12.8-29.35 11.2-29.35L11.2-29.35Q9.4-29.35 8.45-28.13 7.5-26.9 7.5-25.3L7.5-25.3 7.5-9.7Q7.5-7.85 8.58-6.7 9.65-5.55 11.2-5.55L11.2-5.55Q12.8-5.55 13.88-6.83 14.95-8.1 14.95-9.7L14.95-9.7 14.95-12Q14.95-12.2 15.15-12.2L15.15-12.2 20.8-12.2Q21-12.2 21-12L21-12 21-9.7Q21-6.85 19.68-4.55 18.35-2.25 16.15-0.88 13.95 0.5 11.2 0.5ZM86.82 0L70.67 0Q70.47 0 70.47-0.25L70.47-0.25 70.52-34.55Q70.52-34.8 70.77-34.8L70.77-34.8 76.32-34.8Q76.57-34.8 76.57-34.55L76.57-34.55 76.52-6.15 86.82-6.15Q87.07-6.15 87.07-5.9L87.07-5.9 87.07-0.25Q87.07 0 86.82 0L86.82 0ZM144.33 0.5L144.33 0.5Q141.68 0.5 139.43-0.88 137.18-2.25 135.86-4.55 134.53-6.85 134.53-9.6L134.53-9.6 134.63-34.6Q134.63-34.8 134.83-34.8L134.83-34.8 140.43-34.8Q140.63-34.8 140.63-34.6L140.63-34.6 140.63-9.6Q140.63-7.9 141.71-6.73 142.78-5.55 144.33-5.55L144.33-5.55Q145.93-5.55 147.01-6.73 148.08-7.9 148.08-9.6L148.08-9.6 148.08-34.6Q148.08-34.8 148.28-34.8L148.28-34.8 153.88-34.8Q154.08-34.8 154.08-34.6L154.08-34.6 154.18-9.6Q154.18-6.8 152.86-4.5 151.53-2.2 149.31-0.85 147.08 0.5 144.33 0.5ZM213.1 0L204.15 0Q203.95 0 203.95-0.25L203.95-0.25 204.05-34.6Q204.05-34.8 204.25-34.8L204.25-34.8 213.85-34.8Q216.7-34.8 218.95-33.43 221.2-32.05 222.5-29.8 223.8-27.55 223.8-24.9L223.8-24.9Q223.8-22.75 222.83-20.9 221.85-19.05 220.5-17.9L220.5-17.9Q221.95-16.45 222.75-14.55 223.55-12.65 223.55-10.55L223.55-10.55Q223.55-7.65 222.15-5.25 220.75-2.85 218.38-1.43 216 0 213.1 0L213.1 0ZM210.05-28.85L210.05-21 213.85-21Q215.6-21 216.68-22.23 217.75-23.45 217.75-24.9L217.75-24.9Q217.75-26.5 216.6-27.68 215.45-28.85 213.85-28.85L213.85-28.85 210.05-28.85ZM210.05-14.95L210-6.1 213.1-6.1Q214.9-6.1 216.2-7.43 217.5-8.75 217.5-10.55L217.5-10.55Q217.5-12.35 216.2-13.65 214.9-14.95 213.1-14.95L213.1-14.95 210.05-14.95Z" opacity="1" transform="matrix(1,0,0,1,0,0)" fill="#ffffff" class="slogan-text-1" data-fill-palette-color="secondary" id="text-1"/></svg></g></svg></g></svg></g></svg></g></svg></g></svg></g></svg></g><g mask="url(#cfb7c2a8-1762-4144-8922-e5c05bb94cd4)"><g transform="matrix(8.76622215866433, 0, 0, 8.76622215866433, 14.638002216581413, 1)"><svg xmlns="http://www.w3.org/2000/svg" xmlns:xlink="http://www.w3.org/1999/xlink" version="1.1" x="0" y="0" viewBox="2.5100000000000002 11.011 41.77900000000001 27.971" enable-background="new 0 0 48 48" xml:space="preserve" height="27.971" width="41.77900000000001" class="icon-none" data-fill-palette-color="accent" id="none"><g fill="#eda84c" data-fill-palette-color="accent"><path d="M38.339 38.982H8.461c-0.524 0-0.959-0.405-0.998-0.928-0.159-2.201-1.867-3.973-4.061-4.212-0.507-0.056-0.892-0.483-0.892-0.994V16.941c0-0.51 0.384-0.938 0.892-0.994 2.113-0.231 3.814-1.932 4.045-4.045 0.056-0.507 0.484-0.891 0.994-0.891h29.917c0.51 0 0.938 0.384 0.994 0.891 0.232 2.114 1.934 3.815 4.045 4.046 0.508 0.056 0.892 0.484 0.892 0.994v15.908c0 0.511-0.385 0.938-0.892 0.994-2.193 0.238-3.901 2.011-4.063 4.212C39.298 38.578 38.863 38.982 38.339 38.982zM9.325 36.982h28.151c0.53-2.433 2.399-4.363 4.814-4.969v-14.24c-2.323-0.591-4.171-2.439-4.763-4.763H9.274c-0.592 2.324-2.439 4.172-4.764 4.763v14.24C6.927 32.62 8.795 34.551 9.325 36.982z" fill="#eda84c" data-fill-palette-color="accent"/></g><g fill="#eda84c" data-fill-palette-color="accent"><path d="M35.634 34.697H11.167c-0.552 0-1-0.447-1-1V16.296c0-0.552 0.448-1 1-1h24.467c0.553 0 1 0.448 1 1v17.401C36.634 34.25 36.187 34.697 35.634 34.697zM12.167 32.697h22.467V17.296H12.167V32.697z" fill="#eda84c" data-fill-palette-color="accent"/></g></svg></g></g></svg></g><defs/></svg><rect width="395.52" height="247.2" fill="none" stroke="none" visibility="hidden"/></g></svg></g></svg>